<svg width="24" height="24" viewBox="0 0 24 24" fill="none" xmlns="http://www.w3.org/2000/svg">
<g clip-path="url(#clip0_68_223)">
<rect width="24" height="24" rx="4" fill="#D6D93B"/>
<path d="M11.95 18.144C11.326 18.144 10.66 18.114 9.952 18.054C9.244 18.006 8.62 17.94 8.08 17.856V15.966C9.424 16.098 10.492 16.164 11.284 16.164C11.824 16.164 12.244 16.134 12.544 16.074C12.844 16.014 13.066 15.918 13.21 15.786C13.354 15.666 13.444 15.51 13.48 15.318C13.516 15.126 13.534 14.85 13.534 14.49C13.534 14.046 13.504 13.728 13.444 13.536C13.396 13.344 13.294 13.206 13.138 13.122C12.982 13.026 12.718 12.948 12.346 12.888L10.06 12.564C9.196 12.456 8.602 12.126 8.278 11.574C7.954 11.01 7.792 10.2 7.792 9.144C7.792 8.136 7.954 7.368 8.278 6.84C8.614 6.3 9.07 5.94 9.646 5.76C10.234 5.568 10.978 5.472 11.878 5.472C12.49 5.472 13.108 5.508 13.732 5.58C14.356 5.64 14.878 5.718 15.298 5.814V7.668C14.434 7.524 13.48 7.452 12.436 7.452C11.908 7.452 11.488 7.476 11.176 7.524C10.876 7.572 10.648 7.65 10.492 7.758C10.324 7.866 10.216 8.016 10.168 8.208C10.12 8.388 10.096 8.664 10.096 9.036C10.096 9.444 10.12 9.738 10.168 9.918C10.216 10.098 10.312 10.224 10.456 10.296C10.6 10.368 10.846 10.428 11.194 10.476L13.498 10.782C14.002 10.854 14.416 10.992 14.74 11.196C15.076 11.388 15.34 11.706 15.532 12.15C15.736 12.654 15.838 13.362 15.838 14.274C15.838 15.366 15.682 16.194 15.37 16.758C15.07 17.322 14.644 17.694 14.092 17.874C13.552 18.054 12.838 18.144 11.95 18.144Z" fill="#120024"/>
</g>
<defs>
<clipPath id="clip0_68_223">
<rect width="24" height="24" rx="4" fill="white"/>
</clipPath>
</defs>
</svg>
