<svg width="81" height="51" viewBox="0 0 81 51" fill="none" xmlns="http://www.w3.org/2000/svg">
<g clip-path="url(#clip0_9_134)">
<path d="M79.6529 1.98817C80.1987 1.90383 80.5728 1.39299 80.4885 0.847178C80.4041 0.301372 79.8933 -0.0727167 79.3475 0.0116278L79.6529 1.98817ZM29.122 31.6457L28.1295 31.5239L29.122 31.6457ZM56.1197 46.3712L57.0577 46.7179L56.1197 46.3712ZM0.100306 40.0132C-0.140518 40.5102 0.0671641 41.1084 0.564177 41.3492L8.66347 45.2737C9.16049 45.5145 9.75862 45.3068 9.99945 44.8098C10.2402 44.3128 10.0326 43.7146 9.53558 43.4738L2.3362 39.9854L5.82461 32.786C6.06544 32.289 5.85776 31.6909 5.36074 31.4501C4.86373 31.2092 4.2656 31.4169 4.02477 31.9139L0.100306 40.0132ZM79.3475 0.0116278C70.0497 1.44843 57.8175 5.31127 47.6538 10.7551C42.5705 13.4777 37.9646 16.6169 34.497 20.079C31.0357 23.5346 28.6375 27.3843 28.1295 31.5239L30.1146 31.7675C30.5477 28.2389 32.6203 24.7788 35.9101 21.4943C39.1936 18.2162 43.6191 15.1849 48.5981 12.5181C58.5589 7.18299 70.5746 3.39106 79.6529 1.98817L79.3475 0.0116278ZM28.1295 31.5239C27.9878 32.6786 27.9732 33.7878 28.0729 34.8499L30.0642 34.6628C29.9783 33.7489 29.9898 32.7842 30.1146 31.7675L28.1295 31.5239ZM28.0729 34.8499C28.7961 42.5473 35.4201 47.3403 41.8712 49.3533C45.1235 50.3681 48.4504 50.7217 51.1695 50.3645C53.8171 50.0167 56.2394 48.9318 57.0577 46.7179L55.1817 46.0245C54.7656 47.1502 53.3563 48.06 50.909 48.3815C48.5332 48.6936 45.502 48.3911 42.467 47.4441C36.3436 45.5334 30.6764 41.1795 30.0642 34.6628L28.0729 34.8499ZM57.0577 46.7179C57.6677 45.0674 57.2693 43.3241 56.1727 41.7535C55.085 40.1957 53.2764 38.7412 50.8746 37.5145C46.0619 35.0564 38.6518 33.4004 29.0315 33.757L29.1056 35.7557C38.4863 35.4079 45.5354 37.0333 49.9649 39.2956C52.1842 40.4292 53.6924 41.6947 54.5328 42.8984C55.3643 44.0893 55.5054 45.1489 55.1817 46.0245L57.0577 46.7179ZM29.0315 33.757C21.0578 34.0526 11.5398 35.7312 0.672222 39.5046L1.32824 41.394C12.0292 37.6784 21.3512 36.0431 29.1056 35.7557L29.0315 33.757Z" fill="#D6D93B"/>
</g>
<defs>
<clipPath id="clip0_9_134">
<rect width="81" height="51" fill="white"/>
</clipPath>
</defs>
</svg>
