<svg width="44" height="44" viewBox="0 0 44 44" fill="none" xmlns="http://www.w3.org/2000/svg">
<rect width="44" height="44" rx="22" fill="#20053B"/>
<path fill-rule="evenodd" clip-rule="evenodd" d="M22.026 12C16.517 12 12.052 16.465 12.052 21.974C12.052 26.38 14.909 30.119 18.873 31.439C19.372 31.529 19.552 31.222 19.552 30.958C19.552 30.721 19.544 30.093 19.541 29.262C16.766 29.864 16.18 27.924 16.18 27.924C15.728 26.772 15.073 26.465 15.073 26.465C14.168 25.846 15.142 25.86 15.142 25.86C16.144 25.93 16.669 26.888 16.669 26.888C17.559 28.412 19.005 27.972 19.571 27.717C19.662 27.072 19.922 26.632 20.206 26.383C17.992 26.132 15.664 25.276 15.664 21.453C15.664 20.366 16.053 19.474 16.688 18.778C16.587 18.525 16.242 17.51 16.787 16.138C16.787 16.138 17.624 15.869 19.529 17.159C20.3426 16.9377 21.1818 16.8247 22.025 16.823C22.8682 16.8244 23.7075 16.9373 24.521 17.159C26.427 15.868 27.263 16.138 27.263 16.138C27.808 17.51 27.466 18.525 27.362 18.778C28.002 19.474 28.386 20.365 28.386 21.453C28.386 25.286 26.056 26.128 23.834 26.375C24.189 26.683 24.509 27.291 24.509 28.221C24.509 29.555 24.497 30.631 24.497 30.958C24.497 31.225 24.675 31.535 25.184 31.437C29.146 30.115 32 26.379 32 21.974C32 16.465 27.535 12 22.026 12Z" fill="white"/>
</svg>
