<svg width="44" height="44" viewBox="0 0 44 44" fill="none" xmlns="http://www.w3.org/2000/svg">
<rect width="44" height="44" rx="22" fill="#20053B"/>
<path d="M22.435 24.3299L12.9175 18.2731C12.4255 17.9477 12.0809 17.4421 11.958 16.8652C11.8351 16.2882 11.9437 15.6861 12.2604 15.1884C12.5771 14.6907 13.0766 14.3373 13.6514 14.2043C14.2261 14.0713 14.83 14.1694 15.3332 14.4773L22.3157 18.9205L28.585 14.5319C29.0741 14.2005 29.674 14.0747 30.2551 14.1818C30.8362 14.2889 31.3518 14.6203 31.6906 15.1044C32.0294 15.5885 32.1641 16.1864 32.0658 16.769C31.9675 17.3516 31.6439 17.8722 31.165 18.2182L22.435 24.3299Z" fill="#EA4435"/>
<path d="M30.6251 29.8755H27.6251V16.3755C27.6251 15.7788 27.8621 15.2065 28.2841 14.7845C28.706 14.3625 29.2783 14.1255 29.8751 14.1255V14.1255C30.4718 14.1255 31.0441 14.3625 31.4661 14.7845C31.888 15.2065 32.1251 15.7788 32.1251 16.3755V28.3755C32.1251 28.7733 31.967 29.1548 31.6857 29.4361C31.4044 29.7175 31.0229 29.8755 30.6251 29.8755V29.8755Z" fill="#00AC47"/>
<path d="M32.0922 16.0493C32.0856 16.0043 32.0861 15.9584 32.0767 15.9134C32.0623 15.8446 32.0355 15.781 32.015 15.7145C31.9951 15.6385 31.9711 15.5635 31.9431 15.4901C31.9281 15.4544 31.905 15.4232 31.888 15.3885C31.8413 15.2885 31.7873 15.1921 31.7265 15.1001C31.6965 15.0566 31.659 15.0194 31.6258 14.9782C31.5689 14.9032 31.5074 14.8318 31.4417 14.7645C31.3918 14.716 31.335 14.6754 31.2807 14.6317C31.2231 14.5823 31.163 14.5358 31.1007 14.4924C31.0413 14.4536 30.9762 14.4236 30.9132 14.3905C30.8469 14.3559 30.782 14.3183 30.713 14.2907C30.6463 14.2638 30.5752 14.2467 30.5055 14.2262C30.4359 14.2058 30.3666 14.1812 30.295 14.168C30.2064 14.1537 30.117 14.1447 30.0273 14.141C29.9703 14.137 29.9139 14.127 29.8568 14.1275C29.7507 14.1305 29.6449 14.1412 29.5404 14.1593C29.4981 14.1656 29.4556 14.1651 29.4137 14.1738C29.2722 14.217 29.131 14.2615 28.9903 14.3073C28.9517 14.3238 28.9179 14.3483 28.8804 14.3669C28.4996 14.5446 28.1783 14.8289 27.9555 15.1853C27.7327 15.5416 27.6179 15.9549 27.625 16.3751V20.6966L31.165 18.2184C31.5126 17.9851 31.7852 17.656 31.9497 17.2711C32.1142 16.8861 32.1636 16.4617 32.0919 16.0492L32.0922 16.0493Z" fill="#FFBA00"/>
<path d="M14.125 14.125C14.7217 14.125 15.294 14.3621 15.716 14.784C16.1379 15.206 16.375 15.7783 16.375 16.375V29.875H13.375C12.9772 29.875 12.5956 29.717 12.3143 29.4357C12.033 29.1544 11.875 28.7728 11.875 28.375V16.375C11.875 15.7783 12.1121 15.206 12.534 14.784C12.956 14.3621 13.5283 14.125 14.125 14.125V14.125Z" fill="#4285F4"/>
<path d="M11.9079 16.0494C11.9145 16.0044 11.914 15.9584 11.9234 15.9135C11.9378 15.8446 11.9646 15.781 11.9851 15.7146C12.005 15.6385 12.029 15.5636 12.057 15.4902C12.072 15.4545 12.0951 15.4233 12.1122 15.3886C12.1588 15.2886 12.2128 15.1922 12.2737 15.1002C12.3037 15.0566 12.3412 15.0195 12.3744 14.9782C12.4312 14.9032 12.4927 14.8319 12.5584 14.7645C12.6083 14.716 12.6651 14.6754 12.7194 14.6317C12.777 14.5823 12.8371 14.5358 12.8994 14.4924C12.9589 14.4536 13.024 14.4237 13.0869 14.3905C13.152 14.3537 13.2188 14.3202 13.2872 14.2902C13.3539 14.2633 13.425 14.2462 13.4946 14.2257C13.5642 14.2053 13.6336 14.1807 13.7052 14.1675C13.7938 14.1532 13.8832 14.1442 13.9729 14.1405C14.0299 14.1365 14.0862 14.1265 14.1434 14.127C14.2495 14.1301 14.3552 14.1407 14.4598 14.1588C14.502 14.1651 14.5446 14.1646 14.5866 14.1733C14.6592 14.1918 14.7307 14.214 14.8011 14.2399C14.8718 14.2587 14.9415 14.281 15.0099 14.3068C15.0485 14.3233 15.0823 14.3478 15.1198 14.3664C15.217 14.4121 15.3108 14.4648 15.4005 14.5239C15.7009 14.7303 15.9467 15.0066 16.1165 15.3291C16.2863 15.6517 16.375 16.0107 16.375 16.3752V20.6967L12.835 18.2186C12.4874 17.9852 12.2149 17.6562 12.0504 17.2712C11.8859 16.8862 11.8364 16.4619 11.9079 16.0494V16.0494Z" fill="#C52528"/>
</svg>
