<svg width="40" height="40" viewBox="0 0 40 40" fill="none" xmlns="http://www.w3.org/2000/svg">
<path d="M20 40C31.0457 40 40 31.0457 40 20C40 8.9543 31.0457 0 20 0C8.9543 0 0 8.9543 0 20C0 31.0457 8.9543 40 20 40Z" fill="#20053B"/>
<path d="M13.0008 13.0884C11.7435 14.3944 12.0008 15.7817 12.0008 19.9964C12.0008 23.4964 11.3901 27.0051 14.5861 27.8311C15.5841 28.0877 24.4268 28.0877 25.4235 27.8298C26.7541 27.4864 27.8368 26.4071 27.9848 24.5251C28.0055 24.2624 28.0055 15.7351 27.9841 15.4671C27.8268 13.4624 26.5928 12.3071 24.9668 12.0731C24.5941 12.0191 24.5195 12.0031 22.6075 11.9997C15.8255 12.0031 14.3388 11.7011 13.0008 13.0884Z" fill="url(#paint0_linear_42_113)"/>
<path d="M19.9979 14.0921C17.5772 14.0921 15.2786 13.8768 14.4006 16.1301C14.0379 17.0608 14.0906 18.2694 14.0906 20.0001C14.0906 21.5188 14.0419 22.9461 14.4006 23.8694C15.2766 26.1241 17.5939 25.9081 19.9966 25.9081C22.3146 25.9081 24.7046 26.1494 25.5932 23.8694C25.9566 22.9294 25.9032 21.7388 25.9032 20.0001C25.9032 17.6921 26.0306 16.2021 24.9112 15.0834C23.7779 13.9501 22.2452 14.0921 19.9952 14.0921H19.9979ZM19.4686 15.1568C24.5179 15.1488 25.1606 14.5874 24.8059 22.3854C24.6799 25.1434 22.5799 24.8408 19.9986 24.8408C15.2919 24.8408 15.1566 24.7061 15.1566 19.9974C15.1566 15.2341 15.5299 15.1594 19.4686 15.1554V15.1568ZM23.1512 16.1374C22.7599 16.1374 22.4426 16.4548 22.4426 16.8461C22.4426 17.2374 22.7599 17.5548 23.1512 17.5548C23.5426 17.5548 23.8599 17.2374 23.8599 16.8461C23.8599 16.4548 23.5426 16.1374 23.1512 16.1374ZM19.9979 16.9661C18.3226 16.9661 16.9646 18.3248 16.9646 20.0001C16.9646 21.6754 18.3226 23.0334 19.9979 23.0334C21.6732 23.0334 23.0306 21.6754 23.0306 20.0001C23.0306 18.3248 21.6732 16.9661 19.9979 16.9661ZM19.9979 18.0308C22.6012 18.0308 22.6046 21.9694 19.9979 21.9694C17.3952 21.9694 17.3912 18.0308 19.9979 18.0308Z" fill="white"/>
<defs>
<linearGradient id="paint0_linear_42_113" x1="13.0315" y1="26.9778" x2="27.9018" y2="14.1077" gradientUnits="userSpaceOnUse">
<stop stop-color="#FFDD55"/>
<stop offset="0.5" stop-color="#FF543E"/>
<stop offset="1" stop-color="#C837AB"/>
</linearGradient>
</defs>
</svg>
