<svg width="145" height="91" viewBox="0 0 145 91" fill="none" xmlns="http://www.w3.org/2000/svg">
<g clip-path="url(#clip0_40_90)">
<path d="M2.41143 3.54747C1.43438 3.39698 0.764701 2.48548 0.915611 1.51158C1.06671 0.53769 1.98109 -0.129802 2.95814 0.0206951L2.41143 3.54747ZM92.868 56.4658L94.6447 56.2485L92.868 56.4658ZM44.5388 82.7408L42.8596 83.3594L44.5388 82.7408ZM144.82 71.3961C145.252 72.2829 144.88 73.3503 143.99 73.7799L129.491 80.7825C128.602 81.2121 127.531 80.8415 127.1 79.9547C126.669 79.0679 127.04 78.0005 127.93 77.5709L140.818 71.3465L134.573 58.5005C134.142 57.6137 134.514 56.5465 135.404 56.1168C136.293 55.687 137.364 56.0576 137.795 56.9444L144.82 71.3961ZM2.95814 0.0206951C19.6023 2.5844 41.4995 9.47692 59.6938 19.1905C68.7935 24.0484 77.0386 29.6497 83.2461 35.8272C89.4422 41.9931 93.7353 48.8622 94.6447 56.2485L91.0911 56.6832C90.3158 50.387 86.6056 44.2131 80.7164 38.3526C74.8386 32.5034 66.9164 27.0946 58.0033 22.3362C40.1723 12.8167 18.6627 6.05066 2.41143 3.54747L2.95814 0.0206951ZM94.6447 56.2485C94.8983 58.3089 94.9245 60.288 94.746 62.1831L91.1813 61.8493C91.3351 60.2186 91.3145 58.4973 91.0911 56.6832L94.6447 56.2485ZM94.746 62.1831C93.4514 75.9177 81.5936 84.4698 70.0453 88.0618C64.2233 89.8725 58.2678 90.5034 53.4002 89.8661C48.6607 89.2455 44.3245 87.3097 42.8596 83.3594L46.2179 82.1221C46.9628 84.1307 49.4856 85.7541 53.8666 86.3278C58.1195 86.8846 63.5457 86.3448 68.9788 84.6551C79.9404 81.2458 90.0854 73.4771 91.1813 61.8493L94.746 62.1831ZM42.8596 83.3594C41.7676 80.4144 42.4808 77.3038 44.4439 74.5013C46.391 71.7217 49.6286 69.1264 53.9281 66.9376C62.5435 62.5516 75.8085 59.5968 93.03 60.2331L92.8973 63.7994C76.1047 63.1788 63.486 66.079 55.5566 70.1157C51.5838 72.1384 48.8839 74.3964 47.3795 76.5442C45.891 78.6691 45.6384 80.5598 46.2179 82.1221L42.8596 83.3594ZM93.03 60.2331C107.304 60.7605 124.342 63.7557 143.797 70.4886L142.622 73.8599C123.466 67.2301 106.779 64.3122 92.8973 63.7994L93.03 60.2331Z" fill="#D6D93B"/>
</g>
<defs>
<clipPath id="clip0_40_90">
<rect width="145" height="91" fill="white"/>
</clipPath>
</defs>
</svg>
