<svg width="40" height="40" viewBox="0 0 40 40" fill="none" xmlns="http://www.w3.org/2000/svg">
<path d="M20 40C31.0457 40 40 31.0457 40 20C40 8.9543 31.0457 0 20 0C8.9543 0 0 8.9543 0 20C0 31.0457 8.9543 40 20 40Z" fill="#20053B"/>
<path d="M12.2031 17.3496H15.6329V27.6686H12.2031V17.3496Z" fill="#006699"/>
<path d="M13.9403 12.375C12.7671 12.375 12 13.1454 12 14.158C12 15.1482 12.7443 15.9406 13.8953 15.9406H13.9176C15.1138 15.9406 15.8582 15.1482 15.8582 14.158C15.8358 13.1454 15.1138 12.375 13.9403 12.375Z" fill="#006699"/>
<path d="M24.0522 17.1074C22.2324 17.1074 21.417 18.1075 20.9612 18.8108V17.3496H17.5312V27.6686H20.9611V21.906C20.9611 21.5975 20.9834 21.2896 21.074 21.069C21.3219 20.4529 21.8862 19.8147 22.8337 19.8147C24.0748 19.8147 24.5713 20.761 24.5713 22.1482V27.6686H28.0009V21.7518C28.0009 18.5823 26.3087 17.1074 24.0522 17.1074Z" fill="#006699"/>
</svg>
