<svg width="208" height="176" viewBox="0 0 208 176" fill="none" xmlns="http://www.w3.org/2000/svg">
<path d="M104.108 169.216C140.618 169.216 170.216 139.618 170.216 103.108C170.216 66.5976 140.618 37 104.108 37C67.5976 37 38 66.5976 38 103.108C38 139.618 67.5976 169.216 104.108 169.216Z" stroke="#9B8AAB" stroke-opacity="0.5" stroke-width="0.288"/>
<path fill-rule="evenodd" clip-rule="evenodd" d="M94.0529 90.6664H98.5601C100.44 90.6664 101.947 92.2 101.947 94.0816V98.6264C101.947 100.52 100.44 102.04 98.5601 102.04H94.0529C92.1865 102.04 90.6665 100.52 90.6665 98.6264V94.0816C90.6665 92.2 92.1865 90.6664 94.0529 90.6664ZM94.0529 105.959H98.5601C100.44 105.959 101.947 107.481 101.947 109.374V113.919C101.947 115.799 100.44 117.333 98.5601 117.333H94.0529C92.1865 117.333 90.6665 115.799 90.6665 113.919V109.374C90.6665 107.481 92.1865 105.959 94.0529 105.959V105.959ZM113.947 90.6664H109.44C107.56 90.6664 106.054 92.2 106.054 94.0816V98.6264C106.054 100.52 107.56 102.04 109.44 102.04H113.947C115.814 102.04 117.333 100.52 117.333 98.6264V94.0816C117.333 92.2 115.813 90.6664 113.947 90.6664ZM109.44 105.96H113.947C115.814 105.96 117.333 107.482 117.333 109.375V113.92C117.333 115.8 115.813 117.334 113.947 117.334H109.44C107.56 117.334 106.054 115.8 106.054 113.92V109.375C106.054 107.482 107.56 105.96 109.44 105.96V105.96Z" fill="#9B8AAB" fill-opacity="0.5"/>
<path d="M34.9038 166.064C35.1374 166.32 35.3724 166.598 35.6087 166.897C35.8455 167.186 36.041 167.45 36.1952 167.688L35.6928 168.146C35.2708 167.575 34.8868 167.099 34.5409 166.72C34.3253 166.484 34.1445 166.31 33.9986 166.2C33.8482 166.084 33.7005 166.011 33.5556 165.981C33.4157 165.946 33.2753 165.97 33.1347 166.054C32.989 166.141 32.8128 166.279 32.6059 166.468C32.3448 166.706 32.1738 166.885 32.0928 167.004C32.0119 167.123 31.9896 167.247 32.0262 167.376C32.0582 167.5 32.1605 167.686 32.3331 167.935L33.1503 169.098C33.3449 169.381 33.4464 169.636 33.4548 169.862C33.4588 170.084 33.3925 170.294 33.2561 170.49C33.1196 170.687 32.911 170.913 32.6302 171.169C32.2509 171.515 31.9064 171.721 31.5966 171.787C31.2819 171.858 30.9818 171.816 30.6964 171.661C30.4064 171.501 30.0907 171.234 29.7493 170.86C29.5157 170.604 29.3012 170.344 29.1057 170.08C28.9008 169.816 28.7437 169.589 28.6344 169.4L29.1221 168.955C29.4003 169.369 29.7438 169.8 30.1526 170.248C30.3817 170.5 30.5785 170.686 30.7428 170.806C30.9071 170.927 31.0572 170.998 31.1931 171.018C31.3335 171.044 31.4714 171.022 31.6067 170.952C31.7326 170.883 31.8892 170.763 32.0764 170.592C32.2931 170.394 32.4395 170.238 32.5155 170.124C32.5916 170.009 32.6181 169.895 32.595 169.78C32.5671 169.671 32.4866 169.523 32.3535 169.337L31.5566 168.197C31.3485 167.899 31.2185 167.648 31.1666 167.442C31.1053 167.237 31.1368 167.014 31.2611 166.774C31.3603 166.567 31.6069 166.283 32.001 165.924C32.4197 165.542 32.7915 165.306 33.1165 165.217C33.4366 165.133 33.7348 165.163 34.0113 165.308C34.2784 165.453 34.5759 165.705 34.9038 166.064Z" fill="#9B8AAB" fill-opacity="0.5"/>
<path d="M30.571 160.998L25.7135 164.77L26.8542 166.239L26.2776 166.686L23.5055 163.116L24.0821 162.669L25.2228 164.138L30.0804 160.366L30.571 160.998Z" fill="#9B8AAB" fill-opacity="0.5"/>
<path d="M26.974 156.048L21.2232 159.824L19.1044 156.598L19.6978 156.208L21.3775 158.766L23.3335 157.481L21.8733 155.258L22.4668 154.868L23.9269 157.092L25.9414 155.769L24.2617 153.211L24.8552 152.821L26.974 156.048Z" fill="#9B8AAB" fill-opacity="0.5"/>
<path d="M17.066 153.101L15.844 150.875C15.5939 150.419 15.4851 150.033 15.5179 149.719C15.5506 149.404 15.6821 149.138 15.9125 148.921C16.137 148.706 16.4596 148.483 16.8804 148.253C17.2954 148.025 17.6536 147.874 17.9551 147.8C18.2566 147.725 18.5533 147.76 18.8452 147.904C19.134 148.042 19.4034 148.339 19.6536 148.795L20.4859 150.312L22.7126 149.09L23.0975 149.791L17.066 153.101ZM19.141 149.316C18.9645 148.995 18.7908 148.782 18.6198 148.678C18.4487 148.574 18.2643 148.55 18.0665 148.605C17.8655 148.655 17.5984 148.771 17.2653 148.954C16.9263 149.14 16.6833 149.3 16.5363 149.434C16.3893 149.568 16.3136 149.735 16.3093 149.935C16.305 150.135 16.3911 150.396 16.5675 150.717L17.3036 152.058L19.8722 150.649L19.141 149.316Z" fill="#9B8AAB" fill-opacity="0.5"/>
<path d="M18.1751 139.772L15.3343 141.038L16.5634 143.796L19.4042 142.53L19.7298 143.261L13.4453 146.061L13.1198 145.33L15.8966 144.093L14.6675 141.335L11.8907 142.572L11.5651 141.841L17.8496 139.041L18.1751 139.772Z" fill="#9B8AAB" fill-opacity="0.5"/>
<path d="M13.9234 127.305C14.012 127.467 14.1021 127.67 14.1938 127.914C14.29 128.15 14.3706 128.38 14.4356 128.604C14.6362 129.296 14.6988 129.822 14.6234 130.184C14.5416 130.548 14.2892 130.851 13.8661 131.091C13.4367 131.334 12.7226 131.6 11.7238 131.89C10.7314 132.178 9.99215 132.333 9.50598 132.356C9.01342 132.381 8.63518 132.262 8.37128 131.998C8.10552 131.728 7.87325 131.251 7.67447 130.566C7.60945 130.342 7.55445 130.104 7.50946 129.854C7.46262 129.596 7.43611 129.386 7.42994 129.221L8.0638 129.037C8.11393 129.425 8.1938 129.808 8.3034 130.186C8.46503 130.743 8.63277 131.117 8.80664 131.31C8.98051 131.502 9.25373 131.583 9.6263 131.551C9.99888 131.519 10.6237 131.376 11.5009 131.122C12.3781 130.867 12.9825 130.654 13.3142 130.481C13.6459 130.308 13.8337 130.094 13.8775 129.838C13.9213 129.583 13.8624 129.176 13.7008 128.619C13.5689 128.165 13.4286 127.789 13.28 127.492L13.9234 127.305Z" fill="#9B8AAB" fill-opacity="0.5"/>
<path d="M12.5249 120.688L10.0405 122.19L10.0754 122.356L10.4327 124.059L13.1143 123.497L13.2786 124.279L6.54527 125.692L6.00105 123.099C5.89563 122.596 5.90173 122.204 6.01934 121.92C6.13559 121.63 6.32646 121.42 6.59195 121.289C6.85608 121.152 7.21324 121.036 7.66344 120.942C8.15278 120.839 8.56963 120.813 8.91397 120.863C9.25832 120.913 9.53544 121.114 9.74534 121.465L12.3483 119.846L12.5249 120.688ZM9.42318 122.657C9.34788 122.298 9.24676 122.043 9.11982 121.893C8.98499 121.737 8.82075 121.652 8.62711 121.638C8.43347 121.625 8.16701 121.653 7.82773 121.724C7.48193 121.797 7.22574 121.875 7.05916 121.957C6.89258 122.04 6.78141 122.176 6.72567 122.364C6.66202 122.548 6.66648 122.813 6.73905 123.159L7.07584 124.764L9.74766 124.203L9.42318 122.657Z" fill="#9B8AAB" fill-opacity="0.5"/>
<path d="M11.7557 114.809C11.8531 115.589 11.8364 116.156 11.7056 116.508C11.5682 116.861 11.2804 117.112 10.8421 117.261C10.403 117.403 9.64427 117.541 8.56596 117.676C7.48765 117.81 6.7182 117.862 6.25763 117.833C5.79623 117.796 5.45891 117.623 5.24565 117.314C5.02579 117.005 4.86718 116.461 4.76982 115.68C4.67247 114.899 4.69289 114.336 4.83108 113.99C4.96183 113.637 5.24677 113.39 5.68589 113.248C6.12419 113.099 6.88249 112.958 7.96081 112.823C9.03912 112.689 9.80898 112.64 10.2704 112.676C10.7309 112.706 11.0712 112.875 11.291 113.184C11.5035 113.487 11.6584 114.028 11.7557 114.809ZM11.0512 114.897C10.9819 114.341 10.8885 113.97 10.7712 113.783C10.6538 113.596 10.4124 113.492 10.0469 113.47C9.6814 113.448 9.01905 113.497 8.05981 113.617C7.10057 113.737 6.44646 113.852 6.09748 113.963C5.7485 114.073 5.54008 114.234 5.47221 114.444C5.40435 114.654 5.40506 115.037 5.47437 115.592C5.54367 116.148 5.63741 116.523 5.75561 116.716C5.87297 116.903 6.1144 117.007 6.47988 117.029C6.84536 117.05 7.50772 117.001 8.46696 116.882C9.42619 116.762 10.0803 116.647 10.4293 116.536C10.7783 116.426 10.9867 116.265 11.0546 116.055C11.1216 115.839 11.1205 115.452 11.0512 114.897Z" fill="#9B8AAB" fill-opacity="0.5"/>
<path d="M11.0118 104.268L5.47679 105.827L5.47831 105.877L11.0981 107.096L11.1283 108.086L4.29973 109.875L4.27471 109.055L10.0333 107.609L10.0314 107.549L4.19112 106.317L4.16397 105.427L9.91795 103.831L9.91612 103.771L4.08099 102.708L4.05658 101.909L10.9813 103.268L11.0118 104.268Z" fill="#9B8AAB" fill-opacity="0.5"/>
<path d="M11.3755 95.8547L5.91444 98.556L5.91192 98.5959L11.1814 98.9285L11.1329 99.697L4.26659 99.2635L4.31825 98.4452L9.67635 95.7875L9.67887 95.7476L4.50916 95.4212L4.5583 94.6427L11.4246 95.0762L11.3755 95.8547Z" fill="#9B8AAB" fill-opacity="0.5"/>
<path d="M10.2212 86.1726L9.52486 86.0342L9.94982 83.896L10.6462 84.0344L10.2212 86.1726Z" fill="#9B8AAB" fill-opacity="0.5"/>
<path d="M15.5531 75.3855L9.02702 73.2073L10.1921 69.7166L10.8656 69.9414L9.95378 72.6733L12.3157 73.4616L13.1293 71.0238L13.8028 71.2485L12.9892 73.6864L15.8064 74.6266L15.5531 75.3855Z" fill="#9B8AAB" fill-opacity="0.5"/>
<path d="M19.2524 65.7235L16.3544 65.5474L16.2886 65.7041L15.6147 67.3083L18.1408 68.3695L17.831 69.1071L11.488 66.4424L12.5143 63.9992C12.7131 63.526 12.9415 63.2061 13.1994 63.0397C13.4599 62.8671 13.7365 62.8025 14.0292 62.846C14.3245 62.8832 14.6842 62.9909 15.1083 63.1691C15.5693 63.3628 15.9271 63.5782 16.1818 63.8153C16.4365 64.0525 16.5504 64.3751 16.5236 64.7832L19.5855 64.9306L19.2524 65.7235ZM15.5813 65.5805C15.7233 65.2424 15.7848 64.9754 15.7659 64.7795C15.7434 64.5748 15.6565 64.4117 15.505 64.2903C15.3536 64.1688 15.1181 64.0409 14.7984 63.9067C14.4727 63.7698 14.2178 63.6881 14.0338 63.6614C13.8497 63.6347 13.6811 63.6832 13.528 63.8068C13.3712 63.9217 13.2244 64.1421 13.0876 64.4678L12.4524 65.9798L14.9693 67.0372L15.5813 65.5805Z" fill="#9B8AAB" fill-opacity="0.5"/>
<path d="M21.9602 60.4501C21.5966 61.1477 21.2609 61.6042 20.9532 61.8197C20.6395 62.0321 20.2601 62.0749 19.8149 61.9482C19.3728 61.8155 18.67 61.498 17.7064 60.9958C16.7427 60.4935 16.0799 60.0992 15.718 59.8128C15.3591 59.5206 15.1799 59.1866 15.1802 58.8108C15.1747 58.4321 15.3537 57.8939 15.7173 57.1963C16.0809 56.4987 16.418 56.0466 16.7286 55.8401C17.0363 55.6247 17.4113 55.5833 17.8533 55.7159C18.2985 55.8427 19.0029 56.1572 19.9665 56.6594C20.9301 57.1617 21.5914 57.559 21.9502 57.8513C22.3122 58.1376 22.4959 58.4702 22.5015 58.849C22.5042 59.2188 22.3238 59.7525 21.9602 60.4501ZM21.3306 60.1219C21.5894 59.6254 21.7237 59.2668 21.7333 59.0463C21.743 58.8258 21.6036 58.6028 21.3152 58.3773C21.0268 58.1518 20.454 57.8157 19.5967 57.3689C18.7395 56.9221 18.1359 56.6451 17.7858 56.5378C17.4358 56.4305 17.1731 56.444 16.9979 56.5782C16.8227 56.7124 16.6057 57.0278 16.3469 57.5244C16.0881 58.021 15.9523 58.3825 15.9395 58.6089C15.9298 58.8294 16.0692 59.0524 16.3576 59.2779C16.6461 59.5034 17.2189 59.8396 18.0761 60.2864C18.9333 60.7332 19.537 61.0102 19.887 61.1175C20.2371 61.2247 20.4997 61.2113 20.6749 61.077C20.8532 60.9369 21.0718 60.6185 21.3306 60.1219Z" fill="#9B8AAB" fill-opacity="0.5"/>
<path d="M26.8146 52.1415L20.728 51.8709L20.7065 51.9047L25.1608 54.7398L24.7473 55.3894L18.9433 51.6951L19.3836 51.0034L25.359 51.2624L25.3805 51.2287L21.0106 48.4472L21.4294 47.7892L27.2335 51.4835L26.8146 52.1415Z" fill="#9B8AAB" fill-opacity="0.5"/>
<path d="M29.9966 47.739L25.0992 44.0191L23.9742 45.5003L23.3928 45.0588L26.1268 41.4594L26.7081 41.9009L25.5831 43.3821L30.4805 47.102L29.9966 47.739Z" fill="#9B8AAB" fill-opacity="0.5"/>
<path d="M33.8505 42.9861L28.718 38.4044L31.2886 35.5248L31.8182 35.9977L29.7804 38.2804L31.5261 39.8387L33.2975 37.8544L33.8271 38.3272L32.0557 40.3116L33.8536 41.9165L35.8914 39.6337L36.421 40.1065L33.8505 42.9861Z" fill="#9B8AAB" fill-opacity="0.5"/>
<path d="M41.6754 34.9819L35.8357 33.2448L35.8067 33.2724L39.4414 37.1021L38.8829 37.6322L34.1467 32.6419L34.7415 32.0774L40.4762 33.7764L40.5052 33.7488L36.9393 29.9916L37.5051 29.4546L42.2412 34.4449L41.6754 34.9819Z" fill="#9B8AAB" fill-opacity="0.5"/>
<path d="M40.5562 26.8932L42.0533 25.6911C42.6927 25.1777 43.1992 24.8822 43.5729 24.8045C43.9424 24.7216 44.3033 24.825 44.6557 25.1149C45.004 25.3996 45.512 25.9578 46.1798 26.7895C46.8476 27.6213 47.285 28.2405 47.4918 28.6472C47.6945 29.0488 47.7176 29.4235 47.561 29.7716C47.4002 30.1144 47.0001 30.5425 46.3607 31.0559L44.8636 32.2579L40.5562 26.8932ZM45.846 30.5586C46.3347 30.1663 46.6376 29.8674 46.7549 29.6621C46.8732 29.4474 46.8499 29.1841 46.6848 28.872C46.525 28.5558 46.1487 28.0286 45.556 27.2904C44.9675 26.5574 44.5361 26.0787 44.2619 25.8543C43.9887 25.6205 43.7366 25.5408 43.5056 25.6151C43.2704 25.6843 42.9111 25.9129 42.4277 26.3011L41.6245 26.9459L45.0429 31.2035L45.846 30.5586Z" fill="#9B8AAB" fill-opacity="0.5"/>
<path d="M51.6586 18.9613L53.3056 17.9746C54.0091 17.5532 54.5511 17.3294 54.9319 17.3034C55.3092 17.2716 55.6527 17.4233 55.9623 17.7585C56.2685 18.088 56.6957 18.7102 57.2439 19.6253C57.7921 20.5403 58.1409 21.2134 58.2904 21.6445C58.4365 22.0699 58.4082 22.4443 58.2057 22.7677C57.9997 23.0855 57.5449 23.455 56.8415 23.8765L55.1945 24.8632L51.6586 18.9613ZM56.3994 23.3136C56.937 22.9916 57.2779 22.7368 57.4221 22.5494C57.5685 22.3529 57.5813 22.0888 57.4603 21.7571C57.345 21.4221 57.0442 20.8485 56.5576 20.0364C56.0745 19.2301 55.7124 18.697 55.4714 18.4373C55.2326 18.1685 54.9937 18.0552 54.7547 18.0973C54.5123 18.1337 54.1252 18.3113 53.5933 18.6299L52.7098 19.1593L55.5159 23.843L56.3994 23.3136Z" fill="#9B8AAB" fill-opacity="0.5"/>
<path d="M61.6041 21.2495L58.546 15.0865L62.0037 13.3708L62.3193 14.0068L59.5782 15.3669L60.6183 17.4631L63.0011 16.2807L63.3167 16.9167L60.9339 18.0991L62.0051 20.2579L64.7462 18.8978L65.0618 19.5338L61.6041 21.2495Z" fill="#9B8AAB" fill-opacity="0.5"/>
<path d="M69.6357 17.6108L65.1256 12.007L65.8959 11.698L69.7443 16.5114L69.7907 16.4928L69.2372 10.3579L69.9983 10.0527L70.601 17.2237L69.6357 17.6108Z" fill="#9B8AAB" fill-opacity="0.5"/>
<path d="M75.1815 15.5967L73.1334 9.02858L76.8184 7.87951L77.0298 8.55732L74.1085 9.46824L74.8051 11.7022L77.3445 10.9103L77.5559 11.5881L75.0165 12.38L75.7339 14.6807L78.6552 13.7698L78.8665 14.4476L75.1815 15.5967Z" fill="#9B8AAB" fill-opacity="0.5"/>
<path d="M82.2748 13.5939L80.7284 6.88992L81.5079 6.71011L82.8902 12.7027L85.5406 12.0914L85.7047 12.8027L82.2748 13.5939Z" fill="#9B8AAB" fill-opacity="0.5"/>
<path d="M91.0441 12.0075C90.266 12.1231 89.6993 12.1197 89.3441 11.9972C88.988 11.8682 88.7304 11.5863 88.5714 11.1516C88.4191 10.716 88.263 9.96072 88.1033 8.88585C87.9435 7.81099 87.8732 7.04299 87.8923 6.58184C87.918 6.11971 88.0829 5.77842 88.3872 5.55797C88.6904 5.33092 89.2311 5.15958 90.0092 5.04394C90.7873 4.9283 91.3512 4.93549 91.7008 5.06551C92.056 5.18796 92.3097 5.46702 92.4621 5.90269C92.6211 6.33738 92.7804 7.09215 92.9401 8.16702C93.0999 9.24188 93.1669 10.0104 93.1412 10.4725C93.1222 10.9336 92.961 11.2777 92.6577 11.5048C92.3601 11.7243 91.8222 11.8918 91.0441 12.0075ZM90.9397 11.3052C91.4936 11.2229 91.8627 11.1208 92.0468 10.9991C92.2309 10.8774 92.3294 10.6336 92.3425 10.2677C92.3555 9.90181 92.2909 9.24078 92.1488 8.28462C92.0067 7.32845 91.8763 6.67723 91.7574 6.33094C91.6385 5.98465 91.4733 5.78004 91.2618 5.71712C91.0502 5.65421 90.6675 5.66391 90.1136 5.74623C89.5597 5.82855 89.1874 5.93106 88.9967 6.05376C88.8125 6.17548 88.714 6.41928 88.701 6.78517C88.6879 7.15106 88.7525 7.81209 88.8946 8.76825C89.0367 9.72442 89.1672 10.3756 89.286 10.7219C89.4049 11.0682 89.5701 11.2728 89.7816 11.3357C89.9998 11.3977 90.3858 11.3875 90.9397 11.3052Z" fill="#9B8AAB" fill-opacity="0.5"/>
<path d="M96.3429 4.42737L98.8776 4.26296C99.3965 4.22931 99.7915 4.29387 100.063 4.45667C100.334 4.61946 100.519 4.85128 100.619 5.15213C100.718 5.44632 100.783 5.83291 100.814 6.3119C100.845 6.78425 100.83 7.17269 100.77 7.47724C100.709 7.78179 100.552 8.03583 100.298 8.23937C100.051 8.44247 99.6674 8.56085 99.1485 8.59451L97.4221 8.70649L97.5865 11.2412L96.7882 11.2929L96.3429 4.42737ZM98.8936 7.90957C99.2595 7.88584 99.5257 7.81847 99.6922 7.70746C99.8587 7.59645 99.9588 7.43964 99.9924 7.23704C100.033 7.03401 100.041 6.74289 100.016 6.36369C99.9909 5.97783 99.9488 5.68995 99.8898 5.50004C99.8307 5.31013 99.7114 5.17089 99.532 5.08232C99.3525 4.99375 99.0799 4.96133 98.714 4.98507L97.1872 5.0841L97.3768 8.00795L98.8936 7.90957Z" fill="#9B8AAB" fill-opacity="0.5"/>
<path d="M104.142 11.0112L104.241 4.13195L108.1 4.18751L108.09 4.89744L105.03 4.85339L104.997 7.19315L107.657 7.23144L107.646 7.94136L104.987 7.90308L104.952 10.3128L108.012 10.3569L108.001 11.0668L104.142 11.0112Z" fill="#9B8AAB" fill-opacity="0.5"/>
<path d="M115.149 11.6549L114.449 8.83718L114.28 8.8213L112.548 8.65874L112.292 11.3868L111.495 11.312L112.138 4.46211L114.776 4.70968C115.288 4.75764 115.661 4.87974 115.897 5.07598C116.14 5.27285 116.284 5.51741 116.331 5.80967C116.383 6.10256 116.388 6.478 116.345 6.93599C116.299 7.4338 116.2 7.83972 116.05 8.15375C115.9 8.46778 115.627 8.6731 115.229 8.76973L116.006 11.7352L115.149 11.6549ZM114.186 8.10941C114.551 8.14367 114.825 8.12243 115.006 8.0457C115.194 7.96295 115.324 7.83114 115.394 7.65028C115.465 7.46941 115.516 7.2064 115.549 6.86125C115.582 6.50946 115.584 6.24178 115.554 6.05821C115.524 5.87464 115.428 5.72829 115.264 5.61917C115.107 5.50404 114.853 5.42997 114.501 5.39696L112.868 5.24374L112.613 7.9618L114.186 8.10941Z" fill="#9B8AAB" fill-opacity="0.5"/>
<path d="M124.361 10.7073L124.518 10.0149L126.644 10.4973L126.487 11.1897L124.361 10.7073Z" fill="#9B8AAB" fill-opacity="0.5"/>
<path d="M136.775 17.0618C136.45 16.9421 136.113 16.8041 135.766 16.6478C135.422 16.5001 135.127 16.356 134.881 16.2155L135.115 15.5773C135.753 15.8902 136.313 16.1353 136.795 16.3126C137.095 16.4231 137.336 16.4938 137.516 16.5247C137.703 16.5579 137.867 16.5546 138.01 16.5147C138.15 16.4811 138.263 16.3949 138.35 16.2563C138.439 16.1114 138.532 15.9075 138.628 15.6448C138.75 15.3132 138.82 15.0759 138.837 14.933C138.854 14.7901 138.817 14.6698 138.725 14.5721C138.639 14.4766 138.462 14.3583 138.195 14.2172L136.934 13.5612C136.631 13.4 136.423 13.2207 136.311 13.0231C136.205 12.8279 136.168 12.6116 136.198 12.3742C136.229 12.1369 136.31 11.8398 136.441 11.4832C136.618 11.0015 136.829 10.66 137.074 10.4587C137.321 10.2512 137.606 10.1504 137.931 10.1562C138.262 10.1643 138.665 10.2559 139.141 10.4309C139.466 10.5506 139.776 10.6825 140.071 10.8266C140.375 10.9668 140.619 11.0956 140.803 11.2131L140.575 11.8325C140.137 11.5933 139.634 11.3689 139.064 11.1593C138.745 11.0419 138.485 10.9674 138.283 10.9359C138.082 10.9044 137.916 10.9108 137.786 10.9553C137.65 10.9975 137.538 11.0805 137.449 11.2043C137.37 11.3242 137.286 11.503 137.199 11.7408C137.097 12.0161 137.039 12.222 137.025 12.3587C137.01 12.4953 137.039 12.609 137.112 12.6999C137.188 12.7845 137.327 12.8784 137.531 12.9817L138.763 13.6273C139.085 13.7954 139.316 13.9587 139.457 14.117C139.606 14.2713 139.681 14.4835 139.681 14.7535C139.689 14.9836 139.6 15.3489 139.416 15.8495C139.22 16.3813 138.999 16.7614 138.751 16.99C138.506 17.2123 138.227 17.3229 137.915 17.3217C137.612 17.3165 137.232 17.2299 136.775 17.0618Z" fill="#9B8AAB" fill-opacity="0.5"/>
<path d="M143.825 20.056C143.112 19.7242 142.641 19.4095 142.412 19.1117C142.185 18.8079 142.125 18.4308 142.232 17.9804C142.345 17.5328 142.63 16.8164 143.088 15.8311C143.547 14.8458 143.911 14.1659 144.181 13.7915C144.456 13.4198 144.782 13.2257 145.157 13.2091C145.536 13.1865 146.081 13.3411 146.795 13.6729C147.508 14.0047 147.975 14.3211 148.195 14.6221C148.424 14.9198 148.482 15.2925 148.37 15.7401C148.263 16.1905 147.981 16.9083 147.522 17.8936C147.064 18.8789 146.697 19.5574 146.421 19.929C146.151 20.3035 145.827 20.5021 145.449 20.5247C145.08 20.544 144.538 20.3878 143.825 20.056ZM144.125 19.4123C144.632 19.6485 144.997 19.7664 145.217 19.7662C145.438 19.7659 145.655 19.6166 145.867 19.3183C146.079 19.02 146.389 18.4327 146.797 17.5562C147.205 16.6797 147.454 16.0642 147.546 15.7097C147.637 15.3552 147.612 15.0934 147.47 14.9244C147.328 14.7554 147.003 14.5528 146.495 14.3166C145.987 14.0804 145.62 13.9611 145.393 13.9585C145.173 13.9588 144.956 14.1081 144.744 14.4064C144.532 14.7047 144.222 15.292 143.814 16.1685C143.406 17.045 143.157 17.6605 143.065 18.015C142.974 18.3696 142.999 18.6313 143.141 18.8003C143.289 18.9721 143.617 19.1761 144.125 19.4123Z" fill="#9B8AAB" fill-opacity="0.5"/>
<path d="M149.022 22.6306L152.408 16.6415L153.105 17.0353L150.078 22.3888L152.445 23.7275L152.086 24.363L149.022 22.6306Z" fill="#9B8AAB" fill-opacity="0.5"/>
<path d="M155.962 26.88L158.046 19.9951L158.735 20.4569L156.931 26.3496L156.972 26.3774L161.726 22.4603L162.408 22.9166L156.826 27.4587L155.962 26.88Z" fill="#9B8AAB" fill-opacity="0.5"/>
<path d="M160.783 30.3568L164.993 24.9154L165.626 25.4049L161.415 30.8463L160.783 30.3568Z" fill="#9B8AAB" fill-opacity="0.5"/>
<path d="M167.76 36.267L169.019 30.3058L168.989 30.2791L165.466 34.2119L164.893 33.6982L169.483 28.5736L170.094 29.1207L168.865 34.9741L168.895 35.0007L172.351 31.1424L172.932 31.6629L168.341 36.7874L167.76 36.267Z" fill="#9B8AAB" fill-opacity="0.5"/>
<path d="M174.397 38.7304L174.898 38.2563L176.334 39.7747L173.733 42.2347C173.502 42.0679 173.251 41.8652 172.979 41.6266C172.703 41.3925 172.469 41.1738 172.276 40.9703C171.772 40.4375 171.464 39.9857 171.352 39.6147C171.24 39.2437 171.314 38.8426 171.576 38.4113C171.843 37.9849 172.349 37.4189 173.095 36.7135C173.831 36.0172 174.422 35.5503 174.867 35.3127C175.312 35.0752 175.719 35.0205 176.088 35.1487C176.462 35.2817 176.901 35.6146 177.405 36.1474C177.62 36.375 177.834 36.6309 178.048 36.9151C178.266 37.2042 178.434 37.4493 178.551 37.6507L178.072 38.1042C177.936 37.9023 177.774 37.6833 177.588 37.447C177.41 37.211 177.26 37.0276 177.136 36.8968C176.673 36.4076 176.317 36.0982 176.066 35.9686C175.819 35.8438 175.521 35.8733 175.172 36.0569C174.832 36.2408 174.323 36.6534 173.645 37.2947C173.015 37.8902 172.587 38.3452 172.362 38.6596C172.145 38.9742 172.069 39.2621 172.133 39.5233C172.196 39.7844 172.413 40.1111 172.784 40.5035C172.899 40.6245 173.034 40.758 173.191 40.9038C173.356 41.0499 173.501 41.1695 173.626 41.2626L175.297 39.6822L174.397 38.7304Z" fill="#9B8AAB" fill-opacity="0.5"/>
<path d="M184.536 44.9189L186.014 46.985C186.316 47.4079 186.47 47.7775 186.475 48.0937C186.48 48.4099 186.381 48.6897 186.178 48.9332C185.98 49.1728 185.686 49.4322 185.296 49.7114C184.911 49.9867 184.573 50.1791 184.283 50.2885C183.992 50.398 183.693 50.3985 183.386 50.2902C183.083 50.1873 182.78 49.9244 182.478 49.5014L181.472 48.0942L179.406 49.5717L178.94 48.921L184.536 44.9189ZM182.925 48.9234C183.138 49.2216 183.336 49.4122 183.518 49.495C183.701 49.5778 183.887 49.58 184.076 49.5017C184.27 49.4287 184.521 49.2817 184.831 49.0607C185.145 48.8357 185.367 48.6481 185.497 48.4976C185.628 48.3472 185.683 48.1724 185.663 47.9733C185.644 47.7741 185.528 47.5254 185.314 47.2272L184.424 45.9826L182.041 47.687L182.925 48.9234Z" fill="#9B8AAB" fill-opacity="0.5"/>
<path d="M184.953 58.1629L186.806 55.9278L186.718 55.7821L185.821 54.2912L183.474 55.7037L183.061 55.0183L188.956 51.4713L190.322 53.742C190.587 54.1819 190.71 54.555 190.693 54.8614C190.678 55.1736 190.567 55.435 190.359 55.6456C190.155 55.8619 189.855 56.0887 189.461 56.3258C189.033 56.5836 188.648 56.7453 188.306 56.8109C187.964 56.8765 187.637 56.778 187.323 56.5154L185.396 58.8998L184.953 58.1629ZM187.236 55.2841C187.425 55.5983 187.604 55.8056 187.773 55.906C187.952 56.0087 188.135 56.0348 188.322 55.9842C188.51 55.9337 188.752 55.8191 189.049 55.6403C189.352 55.4582 189.568 55.3007 189.698 55.1679C189.828 55.0351 189.889 54.8704 189.879 54.6738C189.879 54.4794 189.788 54.2309 189.606 53.9281L188.76 52.5228L186.421 53.9303L187.236 55.2841Z" fill="#9B8AAB" fill-opacity="0.5"/>
<path d="M187.611 63.4622C187.262 62.7569 187.092 62.2165 187.1 61.8409C187.113 61.4623 187.303 61.1308 187.668 60.8463C188.036 60.5678 188.707 60.1879 189.681 59.7065C190.656 59.2252 191.365 58.923 191.81 58.7999C192.258 58.6828 192.633 58.7352 192.936 58.9573C193.245 59.1764 193.574 59.6386 193.922 60.3439C194.271 61.0492 194.437 61.5882 194.42 61.9608C194.412 62.3364 194.224 62.6635 193.856 62.942C193.491 63.2264 192.822 63.6093 191.847 64.0907C190.873 64.572 190.162 64.8712 189.714 64.9883C189.27 65.1114 188.893 65.0634 188.584 64.8443C188.283 64.6282 187.959 64.1675 187.611 63.4622ZM188.247 63.1477C188.495 63.6498 188.706 63.9698 188.878 64.1078C189.05 64.2458 189.312 64.2649 189.665 64.1652C190.017 64.0655 190.626 63.8016 191.493 63.3734C192.36 62.9452 192.94 62.6215 193.233 62.4023C193.526 62.1831 193.67 61.9631 193.665 61.7425C193.66 61.5218 193.534 61.1605 193.286 60.6584C193.038 60.1563 192.826 59.8333 192.651 59.6894C192.479 59.5514 192.216 59.5323 191.864 59.632C191.512 59.7317 190.902 59.9956 190.036 60.4238C189.169 60.852 188.589 61.1757 188.296 61.3949C188.003 61.6141 187.859 61.8341 187.863 62.0547C187.871 62.2813 187.999 62.6457 188.247 63.1477Z" fill="#9B8AAB" fill-opacity="0.5"/>
<path d="M196.449 66.1842L197.429 68.6676C197.652 69.2318 197.675 69.6887 197.498 70.0383C197.323 70.3941 196.975 70.6748 196.454 70.8805C196.02 71.0519 195.647 71.106 195.335 71.0427C195.026 70.9856 194.765 70.7951 194.551 70.471L194.513 70.4857C194.594 70.9268 194.531 71.2744 194.323 71.5285C194.124 71.7864 193.804 72.0022 193.364 72.1761C192.843 72.3818 192.383 72.4237 191.984 72.3019C191.591 72.1776 191.268 71.7961 191.016 71.1574L190.05 68.7113L196.449 66.1842ZM194.517 69.5703C194.657 69.9237 194.848 70.1529 195.09 70.258C195.332 70.363 195.639 70.3421 196.011 70.1952C196.284 70.0874 196.486 69.972 196.616 69.8487C196.749 69.7317 196.819 69.5822 196.826 69.4003C196.842 69.2221 196.795 68.9935 196.685 68.7144L196.082 67.1891L193.915 68.0449L194.517 69.5703ZM191.612 70.7608C191.773 71.17 191.967 71.416 192.193 71.4987C192.422 71.5876 192.744 71.55 193.159 71.386C193.575 71.2219 193.834 71.0262 193.938 70.7989C194.051 70.5753 194.028 70.2651 193.872 69.8682L193.255 68.3057L190.995 69.1982L191.612 70.7608Z" fill="#9B8AAB" fill-opacity="0.5"/>
<path d="M192.571 75.6374L199.143 73.6006L199.379 74.3647L193.505 76.1854L194.31 78.7835L193.613 78.9996L192.571 75.6374Z" fill="#9B8AAB" fill-opacity="0.5"/>
<path d="M194.382 82.0661L201.089 80.5313L201.95 84.294L201.258 84.4524L200.575 81.4695L198.294 81.9915L198.888 84.5845L198.195 84.7429L197.602 82.1499L195.253 82.6875L195.935 85.6704L195.243 85.8288L194.382 82.0661Z" fill="#9B8AAB" fill-opacity="0.5"/>
<path d="M196.594 94.6535L202.11 93.8839L202.105 93.8443L196.316 92.6628L196.222 91.9893L201.468 89.2785L201.462 89.2389L195.946 90.0085L195.841 89.2558L202.655 88.3052L202.812 89.4342L197.575 92.1338L197.583 92.1932L203.361 93.3662L203.515 94.4754L196.701 95.426L196.594 94.6535Z" fill="#9B8AAB" fill-opacity="0.5"/>
<path d="M196.827 99.8537C196.809 99.5076 196.803 99.144 196.81 98.7631C196.81 98.3893 196.827 98.0613 196.859 97.7793L197.538 97.7437C197.501 98.4533 197.497 99.0644 197.523 99.577C197.54 99.8966 197.57 100.145 197.613 100.323C197.656 100.508 197.723 100.658 197.816 100.773C197.902 100.889 198.026 100.959 198.188 100.984C198.356 101.009 198.58 101.014 198.86 100.999C199.212 100.981 199.458 100.951 199.596 100.911C199.734 100.87 199.83 100.788 199.883 100.665C199.937 100.549 199.977 100.34 200.001 100.038L200.107 98.6207C200.136 98.2788 200.219 98.0174 200.356 97.8367C200.494 97.6626 200.678 97.5428 200.908 97.4773C201.139 97.4119 201.443 97.3692 201.823 97.3494C202.336 97.3226 202.733 97.3819 203.014 97.5274C203.302 97.6726 203.507 97.8955 203.63 98.1962C203.753 98.5035 203.827 98.9102 203.854 99.4162C203.872 99.7623 203.873 100.099 203.856 100.427C203.847 100.762 203.825 101.037 203.789 101.252L203.13 101.286C203.178 100.79 203.186 100.239 203.154 99.633C203.136 99.2935 203.102 99.0249 203.052 98.8272C203.001 98.6296 202.93 98.4798 202.838 98.3778C202.746 98.2691 202.625 98.1987 202.477 98.1664C202.335 98.1404 202.138 98.134 201.885 98.1473C201.592 98.1626 201.38 98.1904 201.248 98.2306C201.117 98.2709 201.024 98.3425 200.969 98.4455C200.921 98.5481 200.89 98.7133 200.875 98.9411L200.767 100.329C200.739 100.691 200.68 100.967 200.59 101.159C200.507 101.357 200.342 101.509 200.093 101.616C199.885 101.713 199.514 101.776 198.982 101.804C198.416 101.833 197.979 101.78 197.671 101.642C197.371 101.504 197.159 101.292 197.037 101.004C196.922 100.723 196.852 100.34 196.827 99.8537Z" fill="#9B8AAB" fill-opacity="0.5"/>
<path d="M196.43 114.612L198.355 114.163L198.574 111.573L196.751 110.816L196.82 110.009L203.49 112.782L203.401 113.828L196.36 115.439L196.43 114.612ZM202.567 113.245L202.571 113.196L199.265 111.832L199.08 114.014L202.567 113.245Z" fill="#9B8AAB" fill-opacity="0.5"/>
<path d="M195.319 121.726L201.031 119.607L201.038 119.568L195.831 118.689L195.96 117.93L202.744 119.075L202.607 119.884L197.002 121.97L196.995 122.009L202.103 122.871L201.973 123.64L195.189 122.495L195.319 121.726Z" fill="#9B8AAB" fill-opacity="0.5"/>
<path d="M201.073 127.52L200.598 129.381C200.395 130.175 200.168 130.716 199.916 131.002C199.67 131.29 199.319 131.424 198.863 131.404C198.414 131.386 197.673 131.245 196.639 130.981C195.606 130.717 194.884 130.484 194.474 130.283C194.071 130.084 193.828 129.798 193.744 129.426C193.666 129.055 193.729 128.473 193.932 127.678L194.407 125.818L201.073 127.52ZM194.642 127.767C194.487 128.374 194.424 128.795 194.454 129.029C194.488 129.272 194.665 129.469 194.985 129.619C195.302 129.776 195.92 129.971 196.837 130.206C197.748 130.438 198.38 130.562 198.734 130.577C199.093 130.599 199.343 130.512 199.483 130.314C199.629 130.117 199.779 129.718 199.932 129.118L200.187 128.12L194.897 126.769L194.642 127.767Z" fill="#9B8AAB" fill-opacity="0.5"/>
<path d="M190.58 137.945L196.961 140.517L196.662 141.259L190.958 138.96L189.941 141.482L189.264 141.209L190.58 137.945Z" fill="#9B8AAB" fill-opacity="0.5"/>
<path d="M187.897 144.109L194.098 147.089L193.752 147.81L187.55 144.831L187.897 144.109Z" fill="#9B8AAB" fill-opacity="0.5"/>
<path d="M184.757 150.104L191.777 151.674L191.367 152.396L185.358 151.031L185.333 151.074L189.59 155.526L189.185 156.239L184.244 151.008L184.757 150.104Z" fill="#9B8AAB" fill-opacity="0.5"/>
<path d="M181.645 155.169L187.383 158.966L186.941 159.633L181.204 155.836L181.645 155.169Z" fill="#9B8AAB" fill-opacity="0.5"/>
<path d="M176.266 162.562L182.304 163.377L182.328 163.346L178.146 160.123L178.616 159.513L184.065 163.713L183.565 164.362L177.637 163.568L177.612 163.6L181.715 166.762L181.239 167.38L175.79 163.18L176.266 162.562Z" fill="#9B8AAB" fill-opacity="0.5"/>
<path d="M174.3 169.363L174.809 169.828L173.401 171.372L170.756 168.96C170.905 168.717 171.089 168.451 171.307 168.163C171.52 167.87 171.721 167.62 171.909 167.413C172.404 166.871 172.831 166.53 173.193 166.391C173.555 166.252 173.96 166.297 174.41 166.526C174.855 166.761 175.456 167.224 176.215 167.915C176.964 168.598 177.473 169.153 177.743 169.579C178.012 170.006 178.097 170.408 177.996 170.785C177.891 171.168 177.592 171.63 177.098 172.172C176.886 172.403 176.647 172.636 176.379 172.87C176.107 173.109 175.875 173.294 175.683 173.426L175.195 172.981C175.387 172.831 175.593 172.654 175.815 172.45C176.037 172.256 176.209 172.092 176.33 171.959C176.784 171.462 177.066 171.083 177.177 170.823C177.283 170.568 177.232 170.273 177.023 169.938C176.815 169.613 176.366 169.135 175.676 168.507C175.036 167.923 174.55 167.53 174.22 167.328C173.89 167.135 173.598 167.08 173.342 167.163C173.086 167.245 172.776 167.486 172.412 167.885C172.3 168.008 172.177 168.153 172.043 168.32C171.91 168.496 171.801 168.65 171.717 168.781L173.417 170.331L174.3 169.363Z" fill="#9B8AAB" fill-opacity="0.5"/>
</svg>
