<svg width="146" height="137" viewBox="0 0 146 137" fill="none" xmlns="http://www.w3.org/2000/svg">
<path d="M73 121C99.5097 121 121 99.5097 121 73C121 46.4903 99.5097 25 73 25C46.4903 25 25 46.4903 25 73C25 99.5097 46.4903 121 73 121Z" stroke="#9B8AAB" stroke-opacity="0.5" stroke-width="0.288"/>
<path d="M41.2379 126.024C41.5374 126.198 41.8445 126.393 42.1593 126.608C42.4716 126.813 42.737 127.006 42.9553 127.188L42.6127 127.775C42.0392 127.356 41.5308 127.017 41.0874 126.758C40.811 126.597 40.5867 126.485 40.4144 126.423C40.2364 126.358 40.0737 126.332 39.9264 126.347C39.7824 126.355 39.6558 126.421 39.5463 126.542C39.4336 126.669 39.3066 126.854 39.1655 127.095C38.9875 127.401 38.8775 127.622 38.8358 127.76C38.794 127.898 38.8099 128.023 38.8833 128.135C38.9509 128.244 39.1042 128.391 39.3432 128.577L40.4704 129.443C40.7405 129.654 40.9135 129.867 40.9893 130.081C41.0594 130.292 41.0586 130.512 40.9871 130.74C40.9156 130.968 40.7841 131.247 40.5926 131.575C40.3339 132.018 40.0666 132.318 39.7906 132.473C39.5113 132.634 39.2124 132.684 38.8937 132.621C38.5694 132.556 38.1883 132.395 37.7507 132.14C37.4513 131.965 37.1689 131.781 36.9035 131.588C36.6291 131.397 36.4114 131.227 36.2507 131.079L36.5833 130.509C36.9724 130.821 37.429 131.13 37.953 131.436C38.2467 131.607 38.49 131.726 38.6829 131.792C38.8758 131.858 39.0402 131.881 39.176 131.86C39.3175 131.842 39.4425 131.78 39.551 131.673C39.6504 131.569 39.7639 131.408 39.8915 131.189C40.0393 130.936 40.1324 130.743 40.1708 130.611C40.2092 130.479 40.2004 130.362 40.1442 130.26C40.0847 130.163 39.9638 130.046 39.7815 129.909L38.6802 129.058C38.3928 128.837 38.1937 128.636 38.0828 128.455C37.9629 128.277 37.9264 128.055 37.9734 127.789C38.0061 127.561 38.1568 127.217 38.4256 126.756C38.7111 126.267 38.9957 125.931 39.2793 125.749C39.5596 125.573 39.8533 125.513 40.1604 125.569C40.4584 125.627 40.8176 125.779 41.2379 126.024Z" fill="#9B8AAB" fill-opacity="0.4"/>
<path d="M35.6458 122.348L31.9365 127.254L33.4201 128.375L32.9798 128.958L29.3745 126.231L29.8148 125.649L31.2984 126.771L35.0077 121.866L35.6458 122.348Z" fill="#9B8AAB" fill-opacity="0.4"/>
<path d="M30.9267 118.413L26.1535 123.368L23.3736 120.69L23.8662 120.179L26.07 122.302L27.6934 120.617L25.7777 118.771L26.2703 118.26L28.186 120.105L29.858 118.37L27.6542 116.247L28.1468 115.735L30.9267 118.413Z" fill="#9B8AAB" fill-opacity="0.4"/>
<path d="M20.4858 117.436L18.8792 115.469C18.5503 115.066 18.3734 114.707 18.3483 114.392C18.3233 114.077 18.4042 113.791 18.5912 113.535C18.7729 113.283 19.0497 113.006 19.4215 112.702C19.7881 112.403 20.1129 112.189 20.3959 112.061C20.6788 111.934 20.9769 111.914 21.2902 112.002C21.5992 112.086 21.9182 112.329 22.2471 112.732L23.3413 114.071L25.3087 112.465L25.8147 113.085L20.4858 117.436ZM21.8377 113.337C21.6058 113.053 21.3963 112.875 21.2092 112.804C21.0221 112.733 20.8364 112.743 20.6519 112.833C20.4633 112.919 20.2218 113.081 19.9275 113.322C19.628 113.566 19.4181 113.768 19.2979 113.926C19.1777 114.085 19.1337 114.263 19.1658 114.46C19.198 114.658 19.3301 114.898 19.562 115.182L20.5297 116.368L22.7992 114.514L21.8377 113.337Z" fill="#9B8AAB" fill-opacity="0.4"/>
<path d="M19.3457 103.967L16.7109 105.619L18.3153 108.178L20.9501 106.526L21.3751 107.204L15.5463 110.859L15.1213 110.181L17.6968 108.566L16.0924 106.007L13.5169 107.622L13.0919 106.944L18.9207 103.289L19.3457 103.967Z" fill="#9B8AAB" fill-opacity="0.4"/>
<path d="M13.92 91.9076C14.0199 92.0626 14.1243 92.2586 14.2332 92.4955C14.346 92.7239 14.4429 92.9475 14.5238 93.1664C14.7734 93.8417 14.8736 94.3626 14.8242 94.7291C14.7687 95.0979 14.5385 95.4176 14.1338 95.688C13.7229 95.9607 13.0297 96.2773 12.0542 96.6379C11.0849 96.9961 10.3587 97.2042 9.87542 97.262C9.3859 97.3221 9.00009 97.2301 8.718 96.9861C8.4336 96.7359 8.16775 96.2762 7.92044 95.6071C7.83954 95.3882 7.76769 95.1554 7.70487 94.9085C7.63974 94.6554 7.5982 94.4469 7.58025 94.2829L8.19932 94.0541C8.27709 94.4376 8.38416 94.8138 8.52053 95.1827C8.72161 95.7268 8.91576 96.0886 9.10295 96.2681C9.29015 96.4477 9.56843 96.5083 9.93778 96.45C10.3071 96.3916 10.9201 96.2041 11.7768 95.8875C12.6335 95.5709 13.2211 95.3146 13.5396 95.1187C13.8581 94.9228 14.0301 94.6957 14.0555 94.4376C14.0809 94.1794 13.993 93.7783 13.792 93.2343C13.6279 92.7903 13.461 92.4255 13.2915 92.1399L13.92 91.9076Z" fill="#9B8AAB" fill-opacity="0.4"/>
<path d="M12.2614 85.3268L9.82845 86.9111L9.86889 87.0762L10.2828 88.7662L12.9441 88.1145L13.1345 88.8915L6.45194 90.5281L5.82157 87.9542C5.69945 87.4556 5.69245 87.0626 5.80054 86.7753C5.90705 86.4816 6.0908 86.265 6.35179 86.1255C6.6112 85.9797 6.9643 85.852 7.4111 85.7426C7.89675 85.6236 8.31249 85.5836 8.65832 85.6224C9.00416 85.6613 9.28782 85.8526 9.50931 86.1965L12.0569 84.4915L12.2614 85.3268ZM9.22705 87.3981C9.13982 87.042 9.03027 86.7908 8.89838 86.6447C8.75844 86.4936 8.59146 86.4144 8.39747 86.407C8.20347 86.3996 7.93812 86.4371 7.6014 86.5196C7.25821 86.6037 7.00475 86.6898 6.84102 86.7779C6.67729 86.866 6.57071 87.0054 6.52129 87.196C6.4638 87.3816 6.47709 87.6461 6.56114 87.9892L6.95126 89.5822L9.6029 88.9328L9.22705 87.3981Z" fill="#9B8AAB" fill-opacity="0.4"/>
<path d="M11.4753 79.4284C11.5659 80.2098 11.5443 80.7761 11.4106 81.1272C11.2702 81.479 10.9802 81.7274 10.5406 81.8724C10.1003 82.0107 9.34043 82.1425 8.261 82.2677C7.18157 82.3929 6.41171 82.4385 5.95141 82.4047C5.49034 82.3642 5.15451 82.1884 4.94393 81.8772C4.72672 81.5669 4.5728 81.021 4.48216 80.2395C4.39153 79.4581 4.41679 78.8948 4.55795 78.5496C4.69173 78.1985 4.97878 77.9538 5.41911 77.8155C5.85867 77.6705 6.61816 77.5354 7.69759 77.4102C8.77702 77.285 9.54727 77.2427 10.0083 77.2831C10.4686 77.317 10.8074 77.4891 11.0246 77.7995C11.2344 78.104 11.3846 78.647 11.4753 79.4284ZM10.77 79.5102C10.7055 78.954 10.6153 78.5819 10.4996 78.3939C10.3838 78.206 10.1433 78.0997 9.77803 78.075C9.41275 78.0502 8.74999 78.0935 7.78977 78.2049C6.82954 78.3163 6.17446 78.4258 5.82454 78.5335C5.47462 78.6412 5.26482 78.7998 5.19516 79.0092C5.12549 79.2186 5.12291 79.6015 5.18743 80.1577C5.25196 80.714 5.34248 81.0894 5.459 81.284C5.57476 81.4719 5.81528 81.5782 6.18056 81.6029C6.54584 81.6277 7.2086 81.5844 8.16883 81.473C9.12906 81.3616 9.78413 81.2521 10.1341 81.1444C10.484 81.0367 10.6938 80.8781 10.7634 80.6687C10.8323 80.4527 10.8345 80.0665 10.77 79.5102Z" fill="#9B8AAB" fill-opacity="0.4"/>
<path d="M11.1413 68.8543L5.52762 70.1016L5.52635 70.1516L11.0691 71.6834L11.0439 72.6731L4.1258 74.0772L4.14671 73.2574L9.97721 72.1357L9.97874 72.0757L4.21657 70.5183L4.23927 69.6286L10.0736 68.357L10.0751 68.297L4.30862 66.9095L4.32902 66.1097L11.1668 67.8547L11.1413 68.8543Z" fill="#9B8AAB" fill-opacity="0.4"/>
<path d="M12.2839 60.466L6.57317 62.589L6.56654 62.6285L11.7735 63.5034L11.646 64.2627L4.86107 63.1227L4.99695 62.314L10.6008 60.2237L10.6074 60.1843L5.49904 59.3259L5.62829 58.5567L12.4132 59.6968L12.2839 60.466Z" fill="#9B8AAB" fill-opacity="0.4"/>
<path d="M12.5513 50.5897L11.8886 50.3349L12.671 48.3001L13.3337 48.5549L12.5513 50.5897Z" fill="#9B8AAB" fill-opacity="0.4"/>
<path d="M19.9376 40.9735L14.0971 37.3372L16.0421 34.2132L16.6448 34.5885L15.1226 37.0334L17.2364 38.3494L18.5948 36.1677L19.1975 36.5429L17.8392 38.7247L20.3605 40.2944L19.9376 40.9735Z" fill="#9B8AAB" fill-opacity="0.4"/>
<path d="M25.9747 32.5535L23.2316 31.6025L23.1259 31.7356L22.0444 33.0987L24.1908 34.8018L23.6936 35.4285L18.304 31.1522L19.9511 29.0762C20.2702 28.6741 20.5764 28.4277 20.8696 28.337C21.167 28.241 21.4508 28.2534 21.7209 28.3741C21.9952 28.4897 22.3125 28.6904 22.6729 28.9763C23.0646 29.2871 23.3511 29.591 23.5324 29.888C23.7137 30.1851 23.7364 30.5265 23.6005 30.9123L26.5092 31.8798L25.9747 32.5535ZM22.4781 31.4259C22.706 31.1387 22.8373 30.8981 22.8719 30.7043C22.9054 30.5012 22.8657 30.3207 22.7526 30.1629C22.6395 30.0051 22.4472 29.8185 22.1756 29.603C21.8988 29.3834 21.6754 29.2359 21.5054 29.1606C21.3354 29.0852 21.16 29.0865 20.9791 29.1642C20.7972 29.2326 20.5964 29.4052 20.3768 29.682L19.3574 30.9668L21.496 32.6636L22.4781 31.4259Z" fill="#9B8AAB" fill-opacity="0.4"/>
<path d="M30.1535 28.3174C29.5917 28.8681 29.1311 29.1982 28.7717 29.3077C28.4077 29.4125 28.0337 29.3357 27.6497 29.0772C27.2705 28.8141 26.7005 28.2946 25.9399 27.5185C25.1793 26.7424 24.6712 26.1622 24.4158 25.7778C24.1651 25.3887 24.0982 25.0156 24.2149 24.6585C24.327 24.2966 24.6639 23.8403 25.2257 23.2897C25.7875 22.739 26.2481 22.4137 26.6074 22.3136C26.9668 22.204 27.3361 22.2808 27.7153 22.5439C28.0992 22.8023 28.6716 23.3196 29.4322 24.0956C30.1928 24.8717 30.6985 25.4543 30.9491 25.8434C31.2046 26.2278 31.2763 26.6009 31.1642 26.9628C31.0522 27.3153 30.7153 27.7668 30.1535 28.3174ZM29.6565 27.8104C30.0565 27.4184 30.2952 27.1191 30.3727 26.9124C30.4502 26.7058 30.3868 26.4506 30.1824 26.1468C29.978 25.843 29.5375 25.346 28.8609 24.6556C28.1842 23.9653 27.6961 23.5149 27.3965 23.3044C27.0969 23.094 26.843 23.0254 26.6348 23.0988C26.4267 23.1721 26.1226 23.4048 25.7227 23.7968C25.3228 24.1887 25.0817 24.4904 24.9994 24.7017C24.9219 24.9084 24.9853 25.1636 25.1897 25.4673C25.3941 25.7711 25.8346 26.2682 26.5112 26.9585C27.1879 27.6489 27.676 28.0993 27.9756 28.3097C28.2752 28.5202 28.5291 28.5887 28.7372 28.5154C28.9502 28.4374 29.2566 28.2024 29.6565 27.8104Z" fill="#9B8AAB" fill-opacity="0.4"/>
<path d="M37.535 22.1099L31.9309 19.7196L31.8989 19.7437L35.0742 23.9622L34.459 24.4253L30.3215 18.9284L30.9767 18.4353L36.4807 20.7758L36.5127 20.7517L33.3975 16.6131L34.0207 16.144L38.1582 21.6409L37.535 22.1099Z" fill="#9B8AAB" fill-opacity="0.4"/>
<path d="M42.1739 19.2175L39.1153 13.882L37.5016 14.8071L37.1386 14.1737L41.0599 11.9258L41.423 12.5591L39.8093 13.4842L42.8679 18.8197L42.1739 19.2175Z" fill="#9B8AAB" fill-opacity="0.4"/>
<path d="M47.6464 16.4165L44.9594 10.0829L48.5128 8.5754L48.7901 9.22902L45.9731 10.4241L46.887 12.5783L49.3358 11.5394L49.6131 12.193L47.1643 13.2319L48.1056 15.4505L50.9225 14.2554L51.1998 14.909L47.6464 16.4165Z" fill="#9B8AAB" fill-opacity="0.4"/>
<path d="M58.2364 12.7482L53.8704 8.49874L53.8319 8.50966L55.2734 13.5891L54.5327 13.7993L52.6543 7.18067L53.4431 6.95679L57.7338 11.1237L57.7723 11.1128L56.358 6.12956L57.1084 5.9166L58.9868 12.5352L58.2364 12.7482Z" fill="#9B8AAB" fill-opacity="0.4"/>
<path d="M61.3399 5.10884L63.2378 4.81846C64.0484 4.69445 64.6348 4.6924 64.9971 4.81232C65.3584 4.92565 65.619 5.19602 65.7788 5.62344C65.9376 6.04426 66.0976 6.78187 66.259 7.83627C66.4203 8.89067 66.4886 9.64569 66.4639 10.1013C66.4382 10.5504 66.2704 10.8863 65.9605 11.1091C65.6496 11.3252 65.0889 11.4953 64.2783 11.6193L62.3804 11.9097L61.3399 5.10884ZM64.082 10.9311C64.7014 10.8363 65.1133 10.7295 65.3177 10.6105C65.5277 10.484 65.6394 10.2443 65.6528 9.89158C65.6729 9.53781 65.6113 8.89304 65.4682 7.95726C65.326 7.02807 65.1925 6.39768 65.0675 6.06609C64.9482 5.72691 64.77 5.53162 64.5328 5.48023C64.2946 5.42225 63.8691 5.44014 63.2562 5.53391L62.2381 5.68968L63.0638 11.0869L64.082 10.9311Z" fill="#9B8AAB" fill-opacity="0.4"/>
<path d="M75.465 4.16055L77.3822 4.26461C78.201 4.30904 78.7755 4.42702 79.1056 4.61852C79.436 4.80337 79.6358 5.12133 79.7048 5.5724C79.7741 6.01681 79.7799 6.77156 79.7221 7.83666C79.6643 8.90176 79.5767 9.65479 79.4593 10.0957C79.3422 10.53 79.1093 10.8245 78.7604 10.9792C78.4118 11.1272 77.8282 11.1789 77.0094 11.1345L75.0922 11.0304L75.465 4.16055ZM76.958 10.4207C77.5837 10.4546 78.0088 10.4343 78.2332 10.3597C78.4645 10.2788 78.6229 10.067 78.7083 9.72449C78.8003 9.38231 78.8719 8.73858 78.9233 7.79331C78.9742 6.85469 78.9724 6.21031 78.918 5.86018C78.8706 5.50375 78.7361 5.27613 78.5144 5.17731C78.2931 5.07183 77.873 5.00228 77.2539 4.96868L76.2254 4.91286L75.9295 10.3648L76.958 10.4207Z" fill="#9B8AAB" fill-opacity="0.4"/>
<path d="M82.4449 11.7207L83.6326 4.94402L87.4347 5.6104L87.3121 6.30974L84.2981 5.78147L83.8941 8.08634L86.5142 8.54555L86.3916 9.24489L83.7715 8.78567L83.3555 11.1595L86.3695 11.6878L86.2469 12.3871L82.4449 11.7207Z" fill="#9B8AAB" fill-opacity="0.4"/>
<path d="M91.06 13.7023L91.0352 6.50898L91.8298 6.74854L91.8312 12.9112L91.8791 12.9256L95.2766 7.7876L96.0617 8.02427L92.0558 14.0025L91.06 13.7023Z" fill="#9B8AAB" fill-opacity="0.4"/>
<path d="M96.6414 15.689L99.3969 9.38489L102.934 10.9309L102.649 11.5814L99.8456 10.3559L98.9084 12.5L101.346 13.5654L101.061 14.2159L98.624 13.1506L97.6588 15.3588L100.463 16.5844L100.178 17.235L96.6414 15.689Z" fill="#9B8AAB" fill-opacity="0.4"/>
<path d="M103.301 18.924L106.755 12.9738L107.446 13.3755L104.359 18.6943L106.711 20.0598L106.345 20.6911L103.301 18.924Z" fill="#9B8AAB" fill-opacity="0.4"/>
<path d="M110.695 23.9078C110.067 23.4348 109.671 23.0287 109.509 22.6898C109.351 22.3455 109.371 21.9642 109.569 21.5459C109.773 21.1316 110.201 20.4903 110.855 19.6221C111.508 18.7539 112.006 18.1648 112.348 17.8547C112.695 17.5486 113.054 17.4266 113.424 17.4885C113.799 17.5452 114.3 17.8101 114.929 18.2831C115.557 18.7562 115.948 19.1629 116.101 19.5032C116.263 19.8421 116.242 20.2188 116.039 20.6331C115.841 21.0514 115.415 21.6947 114.762 22.5629C114.108 23.4311 113.608 24.0182 113.261 24.3243C112.919 24.6343 112.56 24.7611 112.186 24.7044C111.821 24.6465 111.324 24.3809 110.695 23.9078ZM111.122 23.3406C111.57 23.6774 111.901 23.8686 112.117 23.9143C112.333 23.96 112.576 23.8591 112.846 23.6116C113.116 23.364 113.541 22.8541 114.122 22.0818C114.704 21.3094 115.076 20.7594 115.239 20.4317C115.402 20.104 115.432 19.8427 115.329 19.6478C115.225 19.453 114.949 19.1872 114.502 18.8504C114.055 18.5136 113.72 18.3204 113.499 18.2707C113.283 18.225 113.04 18.3259 112.77 18.5734C112.501 18.821 112.075 19.3309 111.494 20.1032C110.912 20.8755 110.54 21.4256 110.377 21.7533C110.214 22.081 110.184 22.3423 110.288 22.5371C110.397 22.736 110.675 23.0038 111.122 23.3406Z" fill="#9B8AAB" fill-opacity="0.4"/>
<path d="M119.986 22.6614L121.809 24.4295C122.183 24.7915 122.4 25.1275 122.462 25.4378C122.523 25.748 122.476 26.041 122.32 26.3169C122.168 26.588 121.925 26.8958 121.591 27.2404C121.262 27.5802 120.964 27.83 120.698 27.9897C120.431 28.1494 120.138 28.2035 119.816 28.1519C119.5 28.1049 119.155 27.9004 118.781 27.5385L117.539 26.3342L115.771 28.1578L115.197 27.601L119.986 22.6614ZM119.118 26.8897C119.381 27.1449 119.61 27.297 119.804 27.3458C119.998 27.3947 120.181 27.3636 120.354 27.2525C120.531 27.146 120.752 26.9564 121.017 26.6835C121.286 26.4059 121.471 26.1815 121.572 26.0102C121.673 25.8389 121.696 25.657 121.642 25.4646C121.587 25.2721 121.428 25.0483 121.164 24.7931L120.066 23.728L118.026 25.8317L119.118 26.8897Z" fill="#9B8AAB" fill-opacity="0.4"/>
<path d="M120.293 32.9462L125.636 28.6117L128.067 31.6093L127.516 32.0567L125.588 29.6803L123.771 31.1545L125.447 33.2203L124.895 33.6676L123.22 31.6019L121.348 33.1202L123.276 35.4965L122.724 35.9438L120.293 32.9462Z" fill="#9B8AAB" fill-opacity="0.4"/>
<path d="M126.674 41.9645L128.48 39.6915L128.389 39.5477L127.462 38.0756L125.144 39.5364L124.717 38.8595L130.538 35.1916L131.951 37.4336C132.224 37.8679 132.355 38.2385 132.344 38.5452C132.336 38.8576 132.23 39.1212 132.026 39.3361C131.827 39.5566 131.532 39.7895 131.143 40.0347C130.72 40.3013 130.338 40.4708 129.998 40.5435C129.657 40.6161 129.328 40.5244 129.009 40.2683L127.132 42.6921L126.674 41.9645ZM128.896 39.0392C129.092 39.3494 129.275 39.5529 129.446 39.6498C129.627 39.7488 129.811 39.7711 129.997 39.7167C130.183 39.6623 130.423 39.5427 130.716 39.3579C131.015 39.1695 131.228 39.0076 131.356 38.8721C131.483 38.7367 131.54 38.5708 131.527 38.3744C131.523 38.18 131.426 37.9334 131.238 37.6345L130.364 36.247L128.054 37.7024L128.896 39.0392Z" fill="#9B8AAB" fill-opacity="0.4"/>
<path d="M132.831 49.0397L133.494 48.7848L134.276 50.8196L133.614 51.0744L132.831 49.0397Z" fill="#9B8AAB" fill-opacity="0.4"/>
<path d="M134.044 63.0236C133.985 62.6821 133.936 62.3218 133.897 61.9429C133.853 61.5716 133.83 61.2441 133.828 60.9602L134.498 60.8439C134.547 61.5527 134.615 62.16 134.703 62.6657C134.758 62.981 134.817 63.2245 134.88 63.3961C134.945 63.5743 135.031 63.7151 135.136 63.8186C135.236 63.9231 135.367 63.9781 135.531 63.9836C135.7 63.9879 135.923 63.9661 136.199 63.9182C136.547 63.8578 136.788 63.7992 136.92 63.7424C137.052 63.6856 137.137 63.593 137.176 63.4645C137.216 63.3426 137.23 63.1304 137.218 62.828L137.154 61.4079C137.142 61.065 137.193 60.7956 137.308 60.5997C137.424 60.4104 137.592 60.2695 137.813 60.1771C138.034 60.0846 138.331 60.0059 138.706 59.9409C139.212 59.8531 139.613 59.8646 139.909 59.9755C140.213 60.0852 140.443 60.2821 140.601 60.566C140.759 60.8564 140.882 61.2513 140.969 61.7505C141.028 62.092 141.069 62.4266 141.092 62.7541C141.123 63.0871 141.134 63.3627 141.124 63.5809L140.474 63.6938C140.462 63.1952 140.404 62.647 140.3 62.0493C140.242 61.7143 140.176 61.4517 140.102 61.2615C140.029 61.0712 139.94 60.931 139.836 60.8407C139.732 60.7439 139.604 60.6883 139.452 60.674C139.309 60.6651 139.112 60.6823 138.862 60.7257C138.573 60.7758 138.366 60.8287 138.24 60.8844C138.115 60.94 138.031 61.0223 137.989 61.131C137.953 61.2387 137.942 61.4065 137.954 61.6344L138.013 63.0248C138.029 63.3875 138.003 63.6693 137.937 63.8704C137.878 64.0768 137.731 64.2477 137.498 64.383C137.302 64.5048 136.942 64.6114 136.417 64.7026C135.858 64.7996 135.418 64.7981 135.096 64.6984C134.781 64.5975 134.546 64.4117 134.391 64.1409C134.243 63.8755 134.128 63.5031 134.044 63.0236Z" fill="#9B8AAB" fill-opacity="0.4"/>
<path d="M134.836 69.6666L140.977 69.3432L140.879 67.4858L141.608 67.4474L141.846 71.9611L141.117 71.9995L141.019 70.1421L134.878 70.4655L134.836 69.6666Z" fill="#9B8AAB" fill-opacity="0.4"/>
<path d="M134.868 75.8126L141.733 76.2709L141.476 80.1224L140.767 80.0751L140.971 77.0219L138.636 76.866L138.459 79.52L137.751 79.4727L137.928 76.8187L135.523 76.6581L135.319 79.7113L134.611 79.664L134.868 75.8126Z" fill="#9B8AAB" fill-opacity="0.4"/>
<path d="M140.847 84.4278L140.377 86.924C140.281 87.435 140.12 87.8017 139.895 88.0239C139.67 88.2461 139.4 88.3682 139.084 88.3901C138.774 88.4133 138.383 88.3805 137.912 88.2917C137.447 88.2042 137.074 88.0934 136.794 87.9593C136.514 87.8253 136.307 87.6099 136.173 87.3133C136.037 87.0233 136.018 86.6228 136.114 86.1117L136.434 84.4116L133.937 83.9419L134.085 83.1557L140.847 84.4278ZM136.841 86.0348C136.773 86.3951 136.772 86.6697 136.838 86.8586C136.904 87.0474 137.031 87.1832 137.219 87.2661C137.406 87.3555 137.686 87.4353 138.06 87.5055C138.44 87.577 138.729 87.6077 138.928 87.5976C139.126 87.5875 139.291 87.5065 139.421 87.3546C139.551 87.2028 139.65 86.9467 139.718 86.5863L140.001 85.0827L137.122 84.541L136.841 86.0348Z" fill="#9B8AAB" fill-opacity="0.4"/>
<path d="M131.279 93.9777L134.24 94.9284L135.164 92.053L132.202 91.1023L132.447 90.3406L138.998 92.4438L138.753 93.2055L135.859 92.2762L134.935 95.1516L137.83 96.0809L137.585 96.8426L131.035 94.7394L131.279 93.9777Z" fill="#9B8AAB" fill-opacity="0.4"/>
<path d="M125.553 105.896C125.607 105.72 125.69 105.514 125.801 105.278C125.903 105.044 126.011 104.826 126.127 104.623C126.482 103.997 126.816 103.585 127.128 103.387C127.446 103.192 127.839 103.162 128.307 103.297C128.78 103.436 129.469 103.762 130.373 104.276C131.271 104.786 131.898 105.208 132.254 105.54C132.615 105.876 132.793 106.23 132.789 106.603C132.78 106.982 132.6 107.481 132.248 108.101C132.132 108.304 132.001 108.509 131.852 108.716C131.701 108.929 131.568 109.095 131.454 109.215L130.88 108.888C131.123 108.582 131.342 108.258 131.537 107.916C131.823 107.411 131.975 107.03 131.991 106.771C132.008 106.512 131.875 106.26 131.593 106.015C131.31 105.77 130.772 105.422 129.978 104.971C129.184 104.52 128.609 104.236 128.254 104.118C127.899 104.001 127.615 104.016 127.401 104.163C127.187 104.309 126.937 104.635 126.65 105.139C126.416 105.551 126.245 105.913 126.136 106.227L125.553 105.896Z" fill="#9B8AAB" fill-opacity="0.4"/>
<path d="M121.587 111.405L124.366 112.245L124.466 112.108L125.492 110.703L123.279 109.087L123.751 108.441L129.308 112.497L127.745 114.638C127.442 115.052 127.146 115.311 126.857 115.413C126.564 115.521 126.28 115.52 126.005 115.41C125.726 115.306 125.401 115.118 125.03 114.847C124.626 114.552 124.327 114.26 124.134 113.97C123.941 113.681 123.905 113.341 124.025 112.95L121.08 112.1L121.587 111.405ZM125.126 112.391C124.91 112.688 124.788 112.933 124.761 113.128C124.736 113.333 124.783 113.511 124.902 113.664C125.022 113.818 125.221 113.996 125.501 114.201C125.787 114.409 126.016 114.547 126.189 114.616C126.362 114.684 126.537 114.676 126.714 114.591C126.893 114.515 127.087 114.335 127.295 114.05L128.262 112.725L126.057 111.115L125.126 112.391Z" fill="#9B8AAB" fill-opacity="0.4"/>
<path d="M117.584 115.806C118.123 115.233 118.57 114.884 118.925 114.761C119.284 114.641 119.661 114.703 120.055 114.946C120.445 115.193 121.035 115.69 121.826 116.435C122.617 117.18 123.148 117.739 123.419 118.113C123.685 118.492 123.767 118.862 123.664 119.223C123.567 119.589 123.249 120.059 122.709 120.631C122.17 121.204 121.723 121.548 121.368 121.662C121.013 121.786 120.641 121.724 120.252 121.477C119.858 121.234 119.265 120.74 118.474 119.995C117.683 119.25 117.154 118.688 116.888 118.31C116.617 117.936 116.531 117.566 116.628 117.2C116.726 116.843 117.044 116.378 117.584 115.806ZM118.101 116.292C117.717 116.7 117.49 117.009 117.421 117.218C117.352 117.428 117.426 117.68 117.642 117.976C117.858 118.271 118.319 118.75 119.022 119.413C119.726 120.075 120.232 120.506 120.54 120.704C120.848 120.902 121.104 120.96 121.309 120.879C121.514 120.797 121.809 120.552 122.192 120.145C122.576 119.737 122.805 119.426 122.879 119.211C122.948 119.002 122.874 118.749 122.658 118.454C122.442 118.159 121.981 117.68 121.278 117.017C120.574 116.354 120.068 115.924 119.76 115.726C119.452 115.528 119.196 115.469 118.991 115.551C118.781 115.637 118.485 115.885 118.101 116.292Z" fill="#9B8AAB" fill-opacity="0.4"/>
<path d="M109.712 122.873L114.282 126.363L114.321 126.331L111.922 121.105L112.695 120.487L118.226 124.874L117.585 125.386L112.971 121.649L112.924 121.687L115.445 127.097L114.75 127.653L110.019 124.01L109.972 124.047L112.626 129.351L112.001 129.851L108.931 123.497L109.712 122.873Z" fill="#9B8AAB" fill-opacity="0.4"/>
<path d="M102.558 127.403L107.861 130.403L107.896 130.383L105.21 125.836L105.873 125.445L109.372 131.369L108.666 131.786L103.457 128.846L103.423 128.867L106.057 133.327L105.386 133.723L101.887 127.8L102.558 127.403Z" fill="#9B8AAB" fill-opacity="0.4"/>
<circle cx="73" cy="73" r="2" fill="#9B8AAB" fill-opacity="0.5"/>
</svg>
