<svg width="40" height="40" viewBox="0 0 40 40" fill="none" xmlns="http://www.w3.org/2000/svg">
<path d="M20 40C31.0457 40 40 31.0457 40 20C40 8.9543 31.0457 0 20 0C8.9543 0 0 8.9543 0 20C0 31.0457 8.9543 40 20 40Z" fill="#20053B"/>
<path d="M28 15.039C27.405 15.3 26.771 15.473 26.11 15.557C26.79 15.151 27.309 14.513 27.553 13.744C26.919 14.122 26.219 14.389 25.473 14.538C24.871 13.897 24.013 13.5 23.077 13.5C21.261 13.5 19.799 14.974 19.799 16.781C19.799 17.041 19.821 17.291 19.875 17.529C17.148 17.396 14.735 16.089 13.114 14.098C12.831 14.589 12.665 15.151 12.665 15.756C12.665 16.892 13.25 17.899 14.122 18.482C13.595 18.472 13.078 18.319 12.64 18.078C12.64 18.088 12.64 18.101 12.64 18.114C12.64 19.708 13.777 21.032 15.268 21.337C15.001 21.41 14.71 21.445 14.408 21.445C14.198 21.445 13.986 21.433 13.787 21.389C14.212 22.688 15.418 23.643 16.852 23.674C15.736 24.547 14.319 25.073 12.785 25.073C12.516 25.073 12.258 25.061 12 25.028C13.453 25.965 15.175 26.5 17.032 26.5C23.068 26.5 26.368 21.5 26.368 17.166C26.368 17.021 26.363 16.881 26.356 16.742C27.007 16.28 27.554 15.703 28 15.039Z" fill="#03A9F4"/>
</svg>
