<svg width="154" height="11" viewBox="0 0 154 11" fill="none" xmlns="http://www.w3.org/2000/svg">
<path d="M76.1698 0.0820312L76.0582 0.366431L76.5979 0.436138C76.4181 0.412917 76.4109 0.511576 76.5009 0.523197C77.2641 0.0241263 77.8214 1.09218 78.7359 1.01101L78.6386 1.09807C78.7972 1.41731 79.261 1.27808 79.6068 1.52188C79.6282 1.22588 79.8298 0.953101 80.197 0.900906L79.9057 1.16206L80.1832 1.12282L80.1855 1.16148C80.22 1.33827 80.4983 1.19497 80.6623 1.31938L80.7083 1.36532C81.2549 1.33634 80.46 1.03443 80.9092 1.09254C80.798 1.37694 81.8306 0.912707 82.0644 1.44094L83.3531 1.20891L83.2488 1.39463C83.4428 1.22053 83.7272 1.05803 83.9901 1.19158C84.0798 1.2032 83.7134 1.25537 83.616 1.34243C84.1342 1.70816 84.9115 1.01175 85.0556 1.52833C85.3324 1.56409 85.409 1.39718 85.3922 1.26805L85.3906 1.26382L85.4106 1.29449C85.6015 1.51381 86.1979 1.40748 86.5336 1.42372L86.6064 1.42985L86.4048 1.70263C86.5995 1.52853 86.8617 1.66206 87.0419 1.6853C86.8617 1.66206 86.772 1.65044 86.7575 1.84778C87.2151 1.8072 87.8376 1.98721 88.3987 1.76092L88.4064 1.66224C88.8418 1.91768 89.8529 1.74948 90.5873 1.64509C90.4003 1.72052 89.9426 1.7611 90.2884 2.0049C91.0151 1.99919 90.677 1.65671 91.3209 1.5407C91.3968 1.74966 90.8495 1.77861 91.1952 2.02244L91.764 1.69746L91.7426 1.99348C93.1278 1.6744 94.6541 3.16626 95.8883 2.42928L95.8269 2.02297C96.3306 2.58604 96.8166 2.15079 97.1332 2.78929L97.1478 2.59195L97.3064 2.9112L97.6123 2.4527L97.5908 2.74872L97.9649 2.59784L97.9435 2.89386C98.6993 2.49345 98.4617 3.25959 99.2099 2.95786C99.203 3.05652 99.0159 3.13196 99.1056 3.14358C99.9443 2.85347 99.991 3.45711 100.815 3.36434L100.704 3.64874C101.057 3.79389 101.251 3.61977 101.52 3.65463L101.355 3.43405L101.783 3.78816L102.068 3.62568L102.053 3.82302C102.968 3.74187 102.406 3.96816 103.327 3.78834C103.14 3.86377 103.126 4.06111 103.299 4.18304C103.486 4.1076 104.108 4.28761 104.476 4.23541C104.385 4.22379 104.461 4.43275 104.551 4.44437C104.821 4.47922 105.015 4.30512 104.939 4.09616L104.944 4.11482L104.964 4.14435C105.022 4.23358 105.095 4.33204 105.276 4.34984L105.375 4.35161C105.397 4.05558 105.397 4.05558 105.756 4.10207L105.48 4.16589C105.548 4.47351 106.574 4.10796 105.998 4.53159C106.351 4.67676 106.552 4.40398 106.822 4.43882L106.566 4.20664L107.916 4.38092C107.909 4.4796 107.812 4.56664 107.707 4.75238L107.984 4.68856L107.888 4.7756C108.571 5.36191 134.775 4.43329 135.452 5.11829L135.38 5.05582L135.473 4.82226L135.456 5.05282L135.515 5.03938C135.648 5.02534 135.784 5.08952 135.87 5.03069L135.915 4.97903C135.984 5.28667 136.726 5.0836 137.071 5.32743C137.176 5.14169 137.272 5.05465 137.633 5.10111C138.158 5.36818 138.241 5.47846 138.392 5.89638C138.96 5.57141 139.763 5.77466 140.31 5.74571C140.317 5.64703 140.385 5.95467 140.019 6.00687C140.627 6.38422 141.224 5.66456 141.998 6.26247L142.02 5.96647C142.649 6.0478 141.886 6.54687 142.621 6.44248L142.553 6.13486C143.099 6.10591 143.099 6.10591 143.369 6.14075C143.175 6.31487 143.902 6.30914 143.528 6.46001L143.895 6.40782L143.888 6.50648C144.254 6.45428 144.435 6.47752 144.359 6.26856L144.56 5.99578L144.679 5.61273C145.032 5.75787 144.747 5.92037 145.093 6.16417L145.467 6.01332L145.46 6.11198L145.764 6.01982L145.737 6.03283C145.517 6.14998 145.427 6.39957 145.636 6.5931L145.694 6.6402C146.061 6.58801 145.037 6.10627 145.472 6.36169C144.739 6.46608 146.261 6.76228 145.512 7.06401C146.517 6.99449 146.78 7.12801 147.521 6.92496C147.313 7.59531 148.158 7.18151 148.609 7.16482H148.665C148.528 7.12396 148.55 7.05727 148.724 7.00557L148.787 6.98896L148.849 7.39526L149.846 7.42439C149.388 7.46496 150.004 7.74363 149.9 7.92935L150.558 7.61602C150.454 7.80174 150.35 7.98746 150.155 8.16156C150.148 8.26024 150.328 8.28348 150.515 8.20804L151.144 8.28937C151.22 8.49833 150.576 8.61434 150.929 8.75949C151.109 8.78273 151.379 8.81757 151.483 8.63185C151.479 8.69764 151.473 8.76342 151.444 8.79652L151.439 8.79982L151.476 8.78918C151.961 8.61978 152.419 8.06839 153.006 8.45482L153.125 8.545C152.488 8.56233 152.832 8.80615 152.541 9.0674C153.006 8.92803 152.707 9.28792 152.88 9.40975L153.013 8.82937C153.545 8.99772 152.977 9.32276 153.142 9.54327C153.329 9.46797 153.765 9.72333 153.696 9.41559C153.787 9.42728 154.14 9.57249 153.765 9.72333C154.291 9.99037 154.32 9.59565 154.424 9.40997C155.37 10.1298 155.046 9.59003 156 10.2111C155.806 10.3853 155.05 10.7857 154.816 10.2574C154.65 10.4822 154.774 10.9469 155.087 10.971L155.139 10.9688L155.082 10.9817C154.941 11.0064 154.791 11.0097 154.713 10.9675L154.675 10.9365C154.69 10.7392 154.906 10.2691 154.179 10.2747C153.617 10.5011 154.294 11.186 153.222 10.948L153.139 10.8376C153.318 10.861 153.492 10.9828 153.596 10.7972C153.804 10.4256 153.139 10.8376 153.348 10.4663C152.732 10.1875 152.412 10.8435 151.872 10.7738C151.451 10.3208 152.441 10.4487 152.192 10.1178L151.735 10.1583C152.374 10.0676 151.725 9.73537 151.673 9.5357L151.671 9.52482C151.523 9.85408 151.132 9.46641 151.26 9.90288L151.292 10.0016C150.476 9.99577 149.187 10.2278 148.788 9.47898C148.496 9.74019 149.133 9.72288 148.579 9.85033C148.323 9.61813 147.597 9.62397 147.244 9.47876C147.348 9.29309 147.266 9.18271 146.996 9.14787C146.891 9.33355 146.967 9.5426 146.427 9.47291C146.434 9.37423 146.351 9.26386 146.268 9.15372C146.089 9.13034 145.991 9.21733 145.984 9.31601L145.818 9.0955L145.348 9.33355L145.354 9.23487C144.635 9.1418 145.243 9.51922 145.408 9.73974L145.049 9.69321C145.38 10.1345 145.623 10.1169 145.353 10.0821C145.623 10.1169 145.561 9.71051 145.763 9.43785C145.77 9.33917 145.313 9.37963 145.23 9.26948C144.766 9.40863 145.298 9.57699 145.194 9.76289L144.759 9.50731L144.856 9.42031C144.683 9.29848 144.517 9.07774 144.247 9.0429C144.199 9.08645 144.195 9.13581 144.215 9.18652L144.229 9.21482L144.194 9.17709C144.061 9.03517 143.943 8.89793 144.112 8.77555L144.179 8.73532C144.111 8.4277 143.744 8.4799 143.646 8.56693C143.978 9.00806 142.455 8.7119 142.952 9.37356L142.95 9.36982L142.924 9.33391C142.796 9.24153 142.379 9.52651 142.243 9.57119L142.211 9.57677C142.196 9.77413 142.189 9.87281 142.369 9.89596C142.279 9.88427 142.279 9.88427 142.272 9.98296L142.61 10.3256C142.085 10.0585 142.002 9.94811 142.031 9.55339C141.484 9.58239 141.837 9.7276 141.282 9.85528C141.567 9.69276 141.484 9.58239 141.304 9.55923C141.581 9.49539 141.775 9.32118 142.142 9.26903C141.423 9.1762 141.847 8.33457 142.117 8.36942C141.765 8.22427 141.696 7.91665 141.329 7.96885L141.023 8.42734L140.879 7.91074C140.616 7.77722 140.332 7.93969 140.317 8.13703C140.926 8.51438 139.879 9.17597 140.051 9.29781L140.05 9.29582L139.999 9.24533C139.916 9.12844 139.952 8.94992 139.865 8.88846L139.81 8.86831C139.907 8.78125 139.915 8.68259 139.832 8.57231C139.361 8.81022 139.119 8.38068 139.083 8.87402L138.904 8.8508C139.069 9.07145 138.792 9.13529 138.694 9.22228L138.446 8.89139L138.05 9.33827C137.698 9.19306 136.895 8.98985 136.73 8.76927L136.535 8.94332C136.453 8.83308 136.488 8.33974 136.129 8.29326C136.003 8.775 135.214 8.37441 135.088 8.85615C134.869 8.13058 108.492 8.93725 108.64 8.15956C108.183 8.20013 107.463 8.10716 107.42 8.6992V8.69282L107.448 8.30482L107.437 8.36771C107.376 8.5438 107.119 8.38902 106.949 8.34343L106.902 8.33347C106.93 7.93879 105.904 8.30432 105.955 7.61364C105.498 7.65421 105.747 7.98508 105.822 8.19404C105.573 7.86317 105.311 7.72963 104.757 7.85726C104.681 7.92498 104.333 7.95754 104.134 8.05605L104.105 8.07282L103.857 7.74107C103.739 8.1927 103.38 7.56282 102.88 7.58748L102.777 7.60166C102.874 7.5146 102.882 7.41592 102.882 7.41592L102.334 7.44489C102.223 7.72927 102.748 7.99634 102.644 8.18206C101.827 8.17614 101.158 7.39249 101.277 7.00944C100.985 7.27059 101.075 7.28221 100.521 7.40985L100.693 7.53175C99.8906 7.3285 99.7357 8.20492 98.6418 8.26285C98.6204 8.55884 99.3471 8.55313 99.0558 8.81429C98.6886 8.86649 97.9619 8.8722 97.7135 8.54133C98.1091 8.09446 97.2022 8.07692 97.5012 7.71711C97.0512 7.659 97.2022 8.07692 96.9178 8.23942L96.9523 8.21382L96.9638 8.20645C97.0834 8.07239 97.0588 7.6409 97.0029 7.41746L96.9829 7.35138L96.1734 7.24681C96.0684 7.43253 96.3313 7.56605 96.0546 7.62987C95.9718 7.51959 95.6184 7.37444 95.4314 7.44986C95.439 7.3512 94.989 7.29309 94.8166 7.17119C94.6288 7.24663 94.4133 7.71675 94.2623 7.29883C94.4348 7.42073 94.4494 7.22339 94.5391 7.23501L94.014 6.96794C94.352 7.31042 92.9952 7.23483 93.521 7.50188C93.3194 7.77465 92.9591 7.72817 92.7867 7.60627C93.1462 7.65275 92.8978 7.32187 92.9952 7.23483C92.5383 7.2754 92.3658 7.15348 91.9986 7.20567C91.6237 7.35655 91.8867 7.49007 91.9626 7.69904L91.1523 7.59446C90.8687 7.75694 91.5885 7.84989 91.0342 7.97752C91.2282 7.80343 90.8142 7.25198 90.447 7.30418C90.5444 7.21712 90.4685 7.00815 90.7245 7.24036C90.7391 7.04302 90.746 6.94434 90.5728 6.82244C89.9074 7.23445 89.774 7.81487 88.6877 7.77409C88.2232 7.91335 87.8092 7.3619 87.6835 7.84364C87.6904 7.74496 87.6904 7.74496 87.6904 7.74496L86.9637 7.75067C87.0748 7.46629 87.593 7.83202 87.5248 7.52438C86.9023 7.34437 86.8878 7.54171 86.4524 7.28628C86.7222 7.32115 87.0825 7.36761 87.0135 7.05999C86.3013 6.86836 86.0928 7.2398 85.4481 7.35581C85.4481 7.35581 85.4412 7.45449 85.524 7.56477C85.1714 7.41963 84.5267 7.53564 84.0775 7.47753L83.8682 7.84899C84.5597 8.33662 84.5198 7.6343 85.1285 8.01165C84.9192 8.38311 84.2216 7.99414 83.8467 8.14499C83.8759 7.75031 83.5301 7.50651 83.3577 7.38458C82.8034 7.51222 82.6447 7.19297 82.2852 7.14649C82.0008 7.30896 82.7344 7.20457 82.1733 7.43089C81.2595 7.51204 82.2883 5.85215 81.3093 6.82133L81.3783 7.12898C81.2036 7.10642 80.8778 7.06441 80.7375 7.1272L80.7037 7.14682C80.565 7.00325 80.1656 7.15647 80.4201 6.96146L80.4853 6.9141L80.4784 7.01279C80.6585 7.03601 80.6723 6.83867 80.7697 6.75163C80.6332 6.13637 79.9816 6.35104 79.5393 6.19427C79.629 6.20589 79.7264 6.11883 79.816 6.13045C79.2833 5.96207 79.6213 6.30455 78.9774 6.42056C78.8731 6.60628 79.0962 6.0375 78.6317 6.17676C78.2507 6.42629 78.693 6.58306 78.5818 6.86744C78.4017 6.84422 78.312 6.8326 78.1318 6.80935L78.0222 7.22482C78.0015 7.13076 77.7524 7.16026 77.5316 7.20695L77.4657 7.22136C77.9371 6.98345 77.9663 6.58877 78.2721 6.13027C78.4377 6.35086 78.6317 6.17676 78.6462 5.97942C77.941 5.68911 77.6888 6.65259 77.1782 6.18818C77.2464 6.49582 77.1491 6.58286 77.5017 6.72803C77.3223 6.70478 77.2104 6.98916 76.9337 7.05298L77.0303 6.96594C76.4007 6.88459 75.7924 6.50726 75.4038 6.85546C75.411 6.7568 75.4181 6.65812 75.4181 6.65812C74.9232 6.52504 74.8988 6.54878 74.742 6.6515V0.213574C74.9261 0.225943 75.0978 0.24241 75.2484 0.26186L75.2339 0.459201L76.1698 0.0820312ZM50.3288 1.49988C51.4156 1.54063 53.1324 1.66272 54.4819 1.83701L54.6835 1.56424L54.7519 1.87188C55.9431 1.72691 57.3395 2.50483 58.4337 2.44693L58.3652 2.13929C58.8834 2.50501 58.9267 1.91299 58.9806 2.41798C59.4761 2.34752 74.7497 0.36252 75.2484 0.26186L75.8919 7.5C75.8414 7.54689 60.3084 8.3561 60.1834 8.33995L58.1897 8.28168C59.0354 7.89289 57.7614 7.92758 57.6857 7.71861L57.4771 8.09005C57.1244 7.94491 57.7541 8.02623 57.4987 7.79403L56.9444 7.92166L56.8977 7.31802C56.2606 7.33535 55.6237 7.35271 55.2278 7.79958C53.2412 7.64264 50.7616 8.0196 48.7533 8.15868C48.0263 8.16439 48.0767 7.47369 47.5982 7.81028L47.6383 7.78482L47.6393 7.76856C47.635 7.73926 47.6198 7.69809 47.6142 7.65555L47.6125 7.61294C46.9755 7.63027 46.0686 7.61276 45.5359 7.44437C45.3416 7.61847 45.6943 7.76362 45.687 7.8623C45.4243 7.72875 45.266 7.40951 44.8917 7.56039C45.14 7.89125 44.316 7.98402 43.956 7.93753C44.2403 7.77506 44.6903 7.83314 44.6217 7.52552C44.0963 7.25845 43.9847 7.54285 43.7004 7.70533L43.6033 7.79239C42.6676 8.16956 42.7251 7.3802 41.7894 7.75734C41.775 7.95468 42.2394 7.81545 42.135 8.00117C41.2065 8.27966 40.35 7.57145 39.2343 7.92537C39.2415 7.82669 39.4287 7.75128 39.3387 7.73965L38.7916 7.76861C38.9788 7.69317 38.7161 7.55965 38.8204 7.37393C38.7447 7.16497 38.4604 7.32744 38.2805 7.3042C37.9747 7.76269 38.9571 7.98919 38.1258 8.18062C38.3489 7.61184 37.3232 7.97739 37.4348 7.69299C36.0851 7.51871 35.2322 8.00616 33.9511 8.1395C33.8828 7.83186 33.62 7.69834 33.5516 7.39072L33.2672 7.55319L33.2745 7.45451C32.8318 7.29775 32.5332 7.65758 32.8859 7.80273L32.8953 7.80182L32.8465 7.81479C32.6333 7.86804 32.4166 7.92738 32.2468 7.79365L32.166 7.70978C32.2632 7.62272 32.1732 7.6111 32.1805 7.51244L31.8133 7.56463L31.8745 7.97094C30.3379 7.87208 57.9568 7.95895 56.7657 8.1039C56.1431 7.92391 55.2288 8.00506 55.0705 7.6858C54.3508 7.59285 53.3322 7.85974 52.868 7.99897C52.5226 7.75514 51.3925 8.30641 51.4356 7.71439L50.957 8.05098L50.9713 7.85364C50.5972 8.0045 50.7086 7.72012 50.3415 7.77232L50.3199 8.06831C49.9602 8.02185 49.1216 8.31196 48.4917 8.23061L48.499 8.13195C48.2219 8.19577 48.1176 8.38149 47.8547 8.24796L47.7864 7.94032C46.0878 8.81656 44.3314 7.99216 42.3918 8.43885C41.348 7.80606 40.6248 9.00738 39.5125 8.06703C39.1525 8.02057 39.0195 8.60097 39.4765 8.56039C36.18 8.9314 32.4767 8.65242 29.173 9.12225C26.6394 8.99412 23.5228 9.3884 21.9248 8.8833C21.8276 8.97029 22.0976 9.00536 22.1803 9.1155C21.7161 9.25487 21.9319 8.78466 21.8492 8.67438C21.5649 8.83686 21.1978 8.88914 20.9963 9.16181L21.2592 9.29533C19.4596 9.0629 17.6853 9.7303 16.0046 9.11483L15.9903 9.31219C14.889 9.46864 14.2339 8.48774 12.9239 9.0157C13.0355 8.73139 13.4854 8.78947 13.2299 8.55727C11.47 9.02716 10.1995 7.76755 8.20568 7.70926C8.47559 7.74413 8.58713 7.45973 8.59433 7.36107L7.93576 7.6744C7.59025 7.43059 8.31001 7.52354 8.14443 7.30296C7.3419 7.09971 7.92135 7.87174 7.11882 7.66851C7.0576 7.26221 6.31624 7.46526 6.23346 7.35498C6.04633 7.43042 6.02476 7.72641 5.76202 7.59289C5.57489 7.66833 5.94917 7.51745 5.86637 7.40717L4.76513 7.56376C4.7795 7.36642 4.23248 7.39537 4.70392 7.15746C4.37995 6.61761 3.94099 7.65653 3.7142 7.02964L3.1456 7.35462C2.89006 7.12241 3.24276 7.26756 3.25714 7.07022L2.80009 7.11079C2.81445 6.91345 2.83603 6.61743 2.55891 6.68125C2.09467 6.8205 2.89725 7.02373 2.26743 6.9424C1.99033 7.00622 2.48331 6.47229 2.83603 6.61743L2.31057 6.35038L2.40054 6.36201C2.22058 6.33876 2.33932 5.9557 1.88226 5.99628L2.0694 5.92084C1.44677 5.74083 1.30647 6.41991 1.10497 6.69269C0.932205 6.57079 0.759447 6.44886 0.489527 6.41402L0.467617 6.70982L0.377081 6.65213C0.0419717 6.3829 0.432732 8.38825 0.0922232 8.19312L0 8.15365C0.0215646 7.85765 0.255546 8.38585 0.554218 8.02604C0.30586 7.69518 0.867268 7.46886 0.978806 7.18448C2.22752 6.25014 4.6459 5.46687 7.59695 4.85196C10.548 4.23708 13.9345 3.8776 17.1411 3.49491C23.2311 2.88075 28.7232 2.80216 29.3859 2.79474L29.4528 2.79407C29.4528 2.79407 30.2885 3.30064 30.4307 2.9749L30.4311 2.97088L30.4415 3.02612C30.5031 3.24151 30.8077 3.33831 31.1397 3.32795L31.2307 3.32247C31.6194 2.97425 32.055 3.2297 32.4291 3.07883L32.422 3.17751C32.8646 3.33427 33.2604 2.8874 33.6347 2.73652L34.063 3.09063C34.4301 3.03843 34.9772 3.00948 35.1786 2.7367C36.9025 2.76012 39.0835 2.74297 40.4834 2.22657C40.8075 2.76639 42.0058 2.52275 42.5528 2.4938L42.6212 2.80144L43.0098 2.45322C42.9954 2.65056 43.4454 2.70867 43.7081 2.84219L43.7222 2.64488L43.7336 2.66072C43.8235 2.71847 44.2256 2.39511 44.2493 2.80403L44.2478 2.9119C45.1907 2.43607 45.745 2.30844 46.6734 2.02995C46.5763 2.11701 46.5691 2.21567 46.472 2.30273C47.332 1.7166 47.1414 3.08638 48.016 2.30291C49.4013 1.98385 51.021 2.19299 52.1833 2.4427C52.4533 2.47757 52.6476 2.30347 52.8349 2.22803L52.0395 1.92612L53.0339 2.05388L53.3919 2.05706C54.2389 2.04116 55.0851 1.87116 55.8321 1.72183L56.1457 1.65961C58.2008 2.12418 31.4273 1.64853 33.2882 2.28722L33.5112 1.71844C33.6768 1.93902 33.5652 2.2234 33.9179 2.36857C34.2922 2.21769 34.3138 1.92169 34.3281 1.72433L34.7565 2.07846C34.7995 1.48642 36.0016 2.43845 36.2319 1.77099C36.3075 1.97996 37.1101 2.18321 37.3115 1.91043C37.4915 1.93367 37.1858 2.39217 37.7328 2.36322C37.5888 1.84661 37.8442 2.07882 38.2258 1.82928C38.5928 1.77709 38.8268 2.30529 39.2011 2.15444L39.0139 2.22985C39.1867 2.35178 39.8308 2.23576 40.1152 2.07329C40.3095 1.89917 39.8597 1.84108 40.0541 1.66699C40.2195 1.88755 40.5722 2.03271 40.1907 2.28225C40.4534 2.41577 41.0078 2.28814 40.9394 1.98052L40.6765 1.84697L42.4004 1.8704C42.0261 2.02127 42.4761 2.07936 42.6417 2.29994C42.8503 1.9285 43.4944 1.81249 43.5917 1.72543L43.8328 2.15498L43.9371 1.96926L44.02 2.07954L44.4986 1.74296C44.6641 1.96355 45.0996 2.21897 45.3911 1.95782L45.1356 1.72563C45.2879 1.74528 45.618 2.00184 45.8424 1.85528L45.8606 1.83888L45.861 1.8525C45.8648 1.89725 45.8842 1.94404 45.8643 1.98572L45.841 2.01592C46.9207 2.15533 47.9247 2.08581 48.936 1.9176L48.846 1.906C49.3859 1.97571 49.8646 1.63911 50.3288 1.49988Z" fill="#D6D93B"/>
</svg>
